<?xml version="1.0" standalone="no"?>
<!DOCTYPE svg PUBLIC "-//W3C//DTD SVG 1.1//EN" "http://www.w3.org/Graphics/SVG/1.1/DTD/svg11.dtd" >
<svg xmlns="http://www.w3.org/2000/svg" width="100%" height="100%">
<metadata>
Created by FontXChange 20110222 at Fri Sep  9 08:30:03 2016
 By Jonathan Willmann
Part of the digitally encoded machine readable outline data for producing the Typefaces provided is copyrighted (c) 1981 - 2009 Linotype GmbH, www.linotype.com. All rights reserved. This software is the property of Linotype GmbH, and may not be reproduced, used, displayed, modified, disclosed or transferred without the express written approval of Linotype GmbH.  The digitally encoded machine readable software for producing the Typefaces licensed to you is copyrighted (c) 1988, 1990, 1994 Adobe Systems. All Rights Reserved. This software is the property of Adobe Systems Incorporated and its licensors, and may not be reproduced, used, displayed, modified, disclosed or transferred without the express written approval of Adobe. Frutiger is a trademark of Linotype GmbH registered in the U.S. Patent and Trademark Office and may be registered in certain other jurisdictions. This typeface is original artwork of Adrian Frutiger. The design may be protected in certain jurisdictions.
</metadata>
<defs>
<font id="FrutigerLTW01-45Light" horiz-adv-x="556" >
  <font-face 
    font-family="FrutigerLTW01"
    font-weight="400"
    font-stretch="normal"
    units-per-em="1000"
    panose-1="2 11 3 3 3 5 4 2 2 4"
    ascent="750"
    descent="-250"
    x-height="510"
    cap-height="698"
    bbox="-31 -250 1000 911"
    underline-thickness="50"
    underline-position="-50"
    unicode-range="U+000D-E308"
  />
<missing-glyph horiz-adv-x="0" 
 />
    <glyph glyph-name=".notdef" horiz-adv-x="0" 
 />
    <glyph glyph-name="glyph1" horiz-adv-x="0" 
 />
    <glyph glyph-name="uni000D" unicode="&#xd;" horiz-adv-x="0" 
 />
    <glyph glyph-name="space" unicode=" " horiz-adv-x="278" 
 />
    <glyph glyph-name="exclam" unicode="!" horiz-adv-x="389" 
d="M154 84h81v-84h-81v84zM223 169h-57l-12 529h81z" />
    <glyph glyph-name="quotedbl" unicode="&#x22;" 
d="M314 698h63v-218h-63v218zM179 698h63v-218h-63v218z" />
    <glyph glyph-name="numbersign" unicode="#" 
d="M358 425h-130l-21 -152h130zM138 219h-104v54h111l22 152h-107v54h114l31 219h61l-31 -219h130l31 219h61l-31 -219h96v-54h-103l-21 -152h96v-54h-104l-31 -219h-61l31 219h-130l-31 -219h-61z" />
    <glyph glyph-name="dollar" unicode="$" 
d="M308 771v-61q26 0 63 -4q37 -6 72 -19l-11 -63q-49 25 -124 26v-265q32 -16 62 -34q29 -18 52 -42q24 -23 38 -53q14 -31 14 -71q-1 -84 -49 -130q-49 -46 -117 -61v-83h-51v78q-6 -1 -12 -1q-102 2 -158 30l7 71q59 -41 154 -41q4 0 9 1v287q-30 18 -61 37
q-30 18 -55 41q-55 44 -56 114q1 74 50 120q47 46 122 58v65h51zM257 645q-42 -7 -72 -35q-31 -28 -31 -80q0 -38 31 -65q28 -28 72 -52v232zM308 57q44 12 70 46q26 33 27 88q-1 37 -27 65q-27 27 -70 51v-250v0z" />
    <glyph glyph-name="percent" unicode="%" horiz-adv-x="1000" 
d="M677 720h58l-413 -742h-58zM168 518q0 -23 5 -46t15 -43q11 -20 30 -31q18 -13 45 -13q29 0 48 13q18 11 28 31q11 20 15 43t4 46q0 24 -4 48q-4 23 -15 43q-10 20 -28 31q-19 11 -48 11q-27 0 -45 -11q-19 -11 -30 -31q-10 -20 -15 -43q-5 -24 -5 -48zM105 518
q0 83 38 134q38 52 120 53q84 -1 122 -53q36 -51 36 -134q0 -81 -36 -133q-38 -53 -122 -54q-82 1 -120 54q-38 52 -38 133zM642 180q0 -23 5 -46t15 -43q11 -20 30 -31q18 -13 45 -13q29 0 48 13q18 11 28 31q11 20 15 43t4 46q0 24 -4 48q-4 23 -15 43q-10 20 -28 31
q-19 11 -48 11q-27 0 -45 -11q-19 -11 -30 -31q-10 -20 -15 -43q-5 -24 -5 -48zM579 180q0 83 38 134q38 52 120 53q84 -1 122 -53q36 -51 36 -134q0 -81 -36 -133q-38 -53 -122 -54q-82 1 -120 54q-38 52 -38 133z" />
    <glyph glyph-name="ampersand" unicode="&#x26;" horiz-adv-x="667" 
d="M193 554q1 -40 26 -75q24 -36 53 -67l48 24q23 12 43 28q20 17 32 39t12 52q-3 100 -99 101q-21 0 -41 -6q-21 -6 -38 -19q-35 -26 -36 -77zM250 347q-51 -20 -89 -61q-41 -41 -42 -100q1 -71 50 -107q47 -37 112 -37q49 0 95 23q46 22 77 58l-203 224v0zM492 171
q61 97 60 212h60q0 -141 -78 -252l119 -129h-88l-74 78q-87 -93 -212 -92q-92 0 -158 47q-70 48 -71 148q1 80 48 129q47 48 117 74q-33 37 -61 79q-29 41 -30 93q1 75 60 114q56 38 128 38q65 0 114 -35q49 -36 50 -109q0 -40 -14 -68q-14 -30 -38 -51t-54 -37
q-30 -18 -62 -34l184 -205v0z" />
    <glyph glyph-name="quotesingle" unicode="'" horiz-adv-x="278" 
d="M108 698h63v-218h-63v218z" />
    <glyph glyph-name="parenleft" unicode="(" horiz-adv-x="278" 
d="M213 -140q-67 103 -118 213q-52 110 -53 235q1 126 53 236q51 111 118 212h42q-56 -104 -101 -215q-48 -112 -49 -233q1 -121 49 -232q45 -111 101 -216h-42z" />
    <glyph glyph-name="parenright" unicode=")" horiz-adv-x="278" 
d="M65 756q69 -101 119 -212q50 -110 52 -236q-2 -125 -52 -235t-119 -213h-42q58 105 103 216q46 111 47 232q-1 121 -47 233q-45 111 -103 215h42z" />
    <glyph glyph-name="asterisk" unicode="*" 
d="M307 698l-7 -153l145 56l19 -58l-147 -42l97 -119l-50 -38l-86 131l-84 -131l-49 38l94 119l-147 42l17 58l147 -56l-7 153h58z" />
    <glyph glyph-name="plus" unicode="+" horiz-adv-x="600" 
d="M46 288h219v219h69v-219h219v-69h-219v-219h-69v219h-219v69z" />
    <glyph glyph-name="comma" unicode="," horiz-adv-x="278" 
d="M112 84h84l-79 -218h-63z" />
    <glyph glyph-name="hyphen" unicode="-" horiz-adv-x="333" 
d="M41 304h251v-69h-251v69z" />
    <glyph glyph-name="period" unicode="." horiz-adv-x="278" 
d="M98 84h81v-84h-81v84z" />
    <glyph glyph-name="slash" unicode="/" horiz-adv-x="278" 
d="M240 710h69l-271 -722h-69z" />
    <glyph glyph-name="zero" unicode="0" 
d="M278 705q70 -1 115 -32q45 -32 70 -84q46 -110 44 -240q0 -55 -7 -116q-8 -62 -32 -116q-23 -54 -69 -88q-46 -35 -121 -36q-73 1 -118 36q-46 34 -70 88q-23 54 -32 116q-10 61 -9 116q-2 130 45 240q25 52 71 84q45 31 113 32zM278 645q-54 -1 -85 -29q-33 -29 -49 -75
t-21 -96q-5 -52 -5 -96t5 -95q5 -50 21 -96t49 -74q31 -31 85 -31q55 0 87 31q32 28 48 74t22 96q3 51 3 95t-3 96q-6 50 -22 96t-48 75q-32 28 -87 29z" />
    <glyph glyph-name="one" unicode="1" 
d="M281 698h62v-698h-69v620l-113 -99l-38 45z" />
    <glyph glyph-name="two" unicode="2" 
d="M50 60l160 177q66 71 116 145q50 73 52 137q-1 57 -35 91t-88 35q-90 -1 -168 -50l-12 63q40 20 87 34q46 13 89 13q88 0 144 -44q57 -45 58 -139q-2 -79 -62 -163q-59 -85 -130 -161l-126 -138h334v-60h-419v60z" />
    <glyph glyph-name="three" unicode="3" 
d="M150 392h18q37 0 78 5q41 4 77 17q37 14 60 42q22 28 22 76q0 30 -14 52q-14 21 -37 35q-49 26 -109 26q-82 -1 -156 -37l-6 65q79 31 169 32q90 0 155 -39q65 -41 67 -134q-1 -63 -40 -106q-40 -44 -105 -61v-2q71 -4 108 -51q37 -46 37 -118q-2 -95 -73 -147
q-71 -53 -179 -54q-89 -1 -172 28l8 66q44 -19 88 -26q42 -8 80 -8q66 0 122 35q55 34 57 112q0 45 -19 72q-19 26 -48 39q-29 14 -61 18q-34 3 -63 3h-64v60z" />
    <glyph glyph-name="four" unicode="4" 
d="M23 229l314 469h88v-477h103v-60h-103v-161h-69v161h-333v68zM356 629h-2l-268 -408h270v408z" />
    <glyph glyph-name="five" unicode="5" 
d="M458 638h-289l-5 -224q17 6 42 11q25 4 64 4q215 -3 219 -204q-1 -116 -70 -173q-69 -59 -184 -59q-77 0 -149 25v71q71 -36 149 -36q72 0 127 39q56 39 58 119q0 159 -175 158q-81 0 -151 -22l7 351h357v-60z" />
    <glyph glyph-name="six" unicode="6" 
d="M290 381q-75 -1 -116 -42q-43 -43 -43 -113q0 -67 37 -118q37 -54 113 -55q77 1 118 48q39 45 39 117q-1 160 -148 163zM279 -7q-69 1 -112 30q-44 28 -69 75q-24 47 -33 106q-10 58 -10 120q-1 163 70 270q71 109 245 111q57 -1 112 -16l-6 -66q-49 21 -115 22
q-67 1 -112 -23q-46 -24 -74 -67q-27 -41 -39 -93q-12 -53 -12 -107h2q28 45 72 66q43 20 92 20q36 0 74 -9q38 -10 70 -34q33 -24 53 -66q20 -43 20 -109q-1 -103 -60 -165q-59 -64 -168 -65z" />
    <glyph glyph-name="seven" unicode="7" 
d="M416 638h-358v60h426v-60l-270 -638h-76z" />
    <glyph glyph-name="eight" unicode="8" 
d="M137 536q0 -30 15 -52q14 -23 35 -41q22 -18 46 -31t45 -24q51 24 94 59q22 18 34 41q12 21 12 48q-1 56 -45 83q-43 26 -95 26q-56 0 -97 -27q-43 -27 -44 -82zM441 185q0 33 -16 57q-15 24 -41 40q-24 18 -52 31q-29 12 -54 24q-30 -11 -59 -23q-29 -13 -52 -31
q-23 -17 -37 -42q-15 -25 -15 -62q0 -28 15 -51q14 -24 37 -41q49 -34 111 -34q64 -1 113 30t50 102zM68 542q0 45 22 76q20 31 52 50q68 37 136 37q85 0 146 -38q61 -40 63 -125q-2 -64 -46 -107q-45 -45 -97 -72q74 -23 120 -63q45 -40 46 -121q-2 -101 -74 -143
q-70 -43 -158 -43q-87 0 -157 46q-33 22 -53 58q-22 34 -22 82q1 79 47 121q45 41 114 63q-55 25 -96 68q-42 43 -43 111z" />
    <glyph glyph-name="nine" unicode="9" 
d="M266 317q76 0 118 44q41 41 41 111q0 68 -35 120q-37 52 -115 53q-77 -1 -116 -46q-41 -47 -41 -119q0 -161 148 -163zM277 705q70 0 114 -28q45 -28 68 -75q25 -47 34 -106q8 -59 8 -122q1 -161 -68 -269q-72 -110 -247 -112q-57 1 -112 16l6 66q49 -22 115 -22
q134 4 187 91q51 88 50 199h-2q-27 -43 -70 -64q-44 -22 -94 -22q-35 0 -72 11q-38 10 -70 34q-32 25 -53 67q-22 42 -22 106q0 104 61 167q60 62 167 63z" />
    <glyph glyph-name="colon" unicode=":" horiz-adv-x="278" 
d="M98 84h81v-84h-81v84zM179 426h-81v84h81v-84z" />
    <glyph glyph-name="semicolon" unicode=";" horiz-adv-x="278" 
d="M179 426h-81v84h81v-84zM112 84h84l-79 -218h-63z" />
    <glyph glyph-name="less" unicode="&#x3c;" horiz-adv-x="600" 
d="M553 448l-430 -195l430 -195v-66l-507 230v62l507 230v-66z" />
    <glyph glyph-name="equal" unicode="=" horiz-adv-x="600" 
d="M46 187h507v-69h-507v69zM46 388h507v-69h-507v69z" />
    <glyph glyph-name="greater" unicode="&#x3e;" horiz-adv-x="600" 
d="M47 58l431 195l-431 195v66l507 -230v-62l-507 -230v66z" />
    <glyph glyph-name="question" unicode="?" horiz-adv-x="500" 
d="M182 84h81v-84h-81v84zM86 685q72 24 146 25q80 0 135 -42q56 -44 57 -137q-1 -60 -26 -100q-25 -41 -59 -75q-33 -33 -58 -73q-28 -40 -28 -99v-15h-63v13q1 68 27 110q12 22 27 40q14 18 29 34q33 32 57 70t25 95q-1 56 -35 88q-36 31 -91 31q-40 0 -73 -8
q-16 -4 -33 -9q-18 -5 -34 -11z" />
    <glyph glyph-name="at" unicode="@" horiz-adv-x="800" 
d="M531 266q-10 -27 -10 -49q0 -9 6 -15q4 -8 16 -8q29 0 56 18q26 17 46 46q44 61 45 150q-2 118 -87 180q-84 62 -202 62q-128 -1 -210 -84q-84 -83 -85 -216q1 -133 85 -216q82 -85 210 -86q175 2 264 111h61q-102 -168 -325 -171q-180 3 -270 114q-91 106 -91 247
q0 142 91 249q90 109 270 112q138 0 244 -76q108 -77 111 -226q-3 -128 -81 -200q-75 -74 -145 -74q-66 0 -79 61h-2q-17 -22 -45 -41q-28 -20 -78 -20q-60 1 -97 45q-38 42 -38 105q0 102 64 185q62 83 167 86q72 1 110 -77l21 60h63zM266 290q6 -95 72 -96q38 0 68 22
q30 21 51 53q44 69 45 136q-1 52 -26 72q-25 18 -54 18q-52 -1 -102 -57q-52 -56 -54 -148z" />
    <glyph glyph-name="A" unicode="A" horiz-adv-x="667" 
d="M181 247h303l-151 385zM299 698h78l277 -698h-72l-75 187h-352l-75 -187h-67z" />
    <glyph glyph-name="B" unicode="B" 
d="M151 393h77q29 0 59 6q29 5 54 18q26 15 41 40q16 26 16 66q0 39 -14 62q-16 22 -39 34t-49 16q-27 3 -50 3h-95v-245zM149 60h72q36 0 71 7q35 6 64 20q29 15 46 42t17 67q0 47 -17 75q-18 28 -48 41q-30 14 -67 18q-38 3 -77 3h-61v-273zM80 698h166q89 1 154 -35
q65 -38 67 -137q0 -133 -127 -159v-2q67 -12 107 -54t41 -112q-2 -112 -80 -156q-36 -22 -85 -33q-48 -10 -104 -10h-139v698z" />
    <glyph glyph-name="C" unicode="C" horiz-adv-x="667" 
d="M565 620q-34 18 -75 25q-43 5 -81 5q-136 -2 -209 -85q-74 -83 -74 -216q0 -134 73 -216q72 -84 210 -85q36 0 81 7q44 6 75 23l4 -60q-31 -16 -77 -23q-47 -7 -83 -7q-166 2 -258 100q-94 97 -94 261q1 162 95 261q93 98 257 100q34 0 83 -5q48 -6 77 -21z" />
    <glyph glyph-name="D" unicode="D" horiz-adv-x="667" 
d="M80 698h173q186 -2 269 -97q81 -95 80 -251q-2 -187 -113 -269q-110 -81 -287 -81h-122v698zM149 60h57q319 -7 327 294q-2 158 -82 223q-81 62 -201 61h-101v-578z" />
    <glyph glyph-name="E" unicode="E" horiz-adv-x="500" 
d="M86 698h342v-60h-273v-249h259v-60h-259v-269h285v-60h-354v698z" />
    <glyph glyph-name="F" unicode="F" horiz-adv-x="444" 
d="M77 698h332v-60h-263v-249h251v-60h-251v-329h-69v698z" />
    <glyph glyph-name="G" unicode="G" horiz-adv-x="722" 
d="M564 318h-162v60h231v-347q-104 -44 -217 -43q-166 2 -258 100q-94 97 -94 261q1 162 95 261q93 98 257 100q43 0 97 -7q53 -8 90 -26l-8 -64q-41 22 -86 31q-46 6 -93 6q-136 -2 -209 -85q-74 -83 -74 -216q0 -134 73 -216q72 -84 210 -85q35 0 79 6q43 4 69 19v245z
" />
    <glyph glyph-name="H" unicode="H" horiz-adv-x="667" 
d="M88 698h69v-309h353v309h69v-698h-69v329h-353v-329h-69v698z" />
    <glyph glyph-name="I" unicode="I" horiz-adv-x="222" 
d="M77 698h69v-698h-69v698z" />
    <glyph glyph-name="J" unicode="J" horiz-adv-x="333" 
d="M250 180q0 -82 -38 -135q-40 -56 -126 -57q-37 0 -72 12v61q31 -13 65 -13q58 1 81 40q21 38 21 90v520h69v-518z" />
    <glyph glyph-name="K" unicode="K" horiz-adv-x="611" 
d="M95 698h69v-313l314 313h90l-338 -329l367 -369h-95l-338 349v-349h-69v698z" />
    <glyph glyph-name="L" unicode="L" horiz-adv-x="444" 
d="M80 698h69v-638h280v-60h-349v698z" />
    <glyph glyph-name="M" unicode="M" horiz-adv-x="889" 
d="M86 698h107l255 -614l256 614h99v-698h-69v629h-2l-254 -629h-59l-262 629h-2v-629h-69v698z" />
    <glyph glyph-name="N" unicode="N" horiz-adv-x="667" 
d="M77 698h87l355 -614h2v614h69v-698h-93l-349 602h-2v-602h-69v698z" />
    <glyph glyph-name="O" unicode="O" horiz-adv-x="722" 
d="M361 650q-122 -3 -180 -94t-58 -207t58 -205q58 -94 180 -96q123 2 181 96q57 89 57 205t-57 207q-58 91 -181 94zM54 349q-1 147 75 252q75 106 232 109q158 -3 234 -109q75 -105 73 -252q-1 -163 -78 -260q-78 -99 -229 -101q-150 2 -227 101q-78 97 -80 260z" />
    <glyph glyph-name="P" unicode="P" horiz-adv-x="500" 
d="M155 362h48q40 0 76 5q36 4 65 17q29 14 45 42t16 74q-2 136 -138 138h-112v-276zM86 698h172q211 0 216 -198q-1 -97 -64 -147q-62 -51 -159 -51h-96v-302h-69v698z" />
    <glyph glyph-name="Q" unicode="Q" horiz-adv-x="722" 
d="M361 650q-122 -3 -180 -94t-58 -207t58 -205q58 -94 180 -96q123 2 181 96q57 89 57 205t-57 207q-58 91 -181 94zM542 -130l-124 123q-27 -5 -57 -5q-150 2 -227 101q-78 97 -80 260q-1 147 75 252q75 106 232 109q158 -3 234 -109q75 -105 73 -252q-3 -255 -181 -337
l147 -142h-92z" />
    <glyph glyph-name="R" unicode="R" 
d="M88 698h180q200 3 205 -181q-1 -68 -45 -109q-44 -42 -110 -52v-2q40 -5 58 -26q10 -10 17 -25q8 -15 15 -33l119 -270h-76l-101 236q-28 65 -58 81q-15 9 -34 11q-19 1 -44 1h-57v-329h-69v698zM157 389h73q65 -1 118 28q54 29 56 100q0 43 -14 68t-38 36q-24 12 -56 15
q-32 2 -68 2h-71v-249z" />
    <glyph glyph-name="S" unicode="S" horiz-adv-x="500" 
d="M67 89q59 -41 154 -41q67 0 112 35q44 35 45 108q-1 51 -50 86q-22 18 -51 34t-59 32q-30 17 -58 36q-29 18 -52 40q-49 43 -50 109q1 85 65 134q62 47 156 48q27 0 64 -4q37 -6 73 -19l-11 -63q-51 26 -127 26q-27 0 -53 -5q-26 -6 -49 -21q-21 -13 -35 -36
q-14 -24 -14 -58q0 -25 14 -46t36 -37q23 -17 52 -32q28 -16 58 -33q63 -30 110 -76q23 -22 37 -52q13 -30 13 -69q-2 -104 -73 -151q-70 -46 -156 -46q-102 2 -158 30z" />
    <glyph glyph-name="T" unicode="T" horiz-adv-x="500" 
d="M216 638h-206v60h481v-60h-206v-638h-69v638z" />
    <glyph glyph-name="U" unicode="U" horiz-adv-x="667" 
d="M587 244q-1 -76 -24 -126q-25 -51 -63 -79q-39 -28 -82 -39q-44 -12 -84 -12q-38 0 -81 12q-44 11 -83 39q-38 28 -63 79q-26 50 -26 126v454h69v-454q0 -87 47 -140q47 -55 137 -56q92 1 138 56q46 53 46 140v454h69v-454z" />
    <glyph glyph-name="V" unicode="V" horiz-adv-x="611" 
d="M340 0h-74l-260 698h73l225 -629l233 629h68z" />
    <glyph glyph-name="W" unicode="W" horiz-adv-x="944" 
d="M733 0h-82l-177 620h-2l-180 -620h-83l-200 698h71l172 -620h2l179 620h83l176 -620h2l175 620h66z" />
    <glyph glyph-name="X" unicode="X" horiz-adv-x="611" 
d="M267 367l-234 331h81l196 -282l198 282h77l-235 -331l254 -367h-84l-213 318l-221 -318h-79z" />
    <glyph glyph-name="Y" unicode="Y" horiz-adv-x="611" 
d="M271 296l-259 402h80l213 -341l219 341h75l-259 -402v-296h-69v296z" />
    <glyph glyph-name="Z" unicode="Z" horiz-adv-x="500" 
d="M21 60l364 578h-355v60h428v-60l-362 -578h374v-60h-449v60z" />
    <glyph glyph-name="bracketleft" unicode="[" horiz-adv-x="278" 
d="M69 756h162v-48h-99v-800h99v-48h-162v896z" />
    <glyph glyph-name="backslash" unicode="\" horiz-adv-x="278" 
d="M309 -12h-69l-271 722h69z" />
    <glyph glyph-name="bracketright" unicode="]" horiz-adv-x="278" 
d="M209 -140h-162v48h99v800h-99v48h162v-896z" />
    <glyph glyph-name="asciicircum" unicode="^" horiz-adv-x="600" 
d="M268 698h64l218 -433h-71l-179 364l-179 -364h-71z" />
    <glyph glyph-name="underscore" unicode="_" horiz-adv-x="500" 
d="M500 -75v-50h-500v50h500z" />
    <glyph glyph-name="grave" unicode="`" horiz-adv-x="222" 
d="M168 572h-46l-126 144h79z" />
    <glyph glyph-name="a" unicode="a" horiz-adv-x="500" 
d="M366 257h-18q-41 0 -82 -2q-43 -4 -78 -17q-35 -12 -56 -37q-23 -25 -23 -67q0 -49 32 -70q30 -22 74 -22q55 0 87 22q31 21 45 50q15 31 17 61q2 31 2 51v31zM372 82h-2q-22 -45 -67 -69t-95 -25q-53 1 -86 17q-34 15 -52 38q-32 50 -30 89q0 64 31 101q30 37 77 53
q47 17 102 22q54 3 104 3h12v26q3 131 -116 131q-79 1 -150 -42v61q71 33 150 35q181 2 179 -190v-225q-1 -58 5 -107h-62v82z" />
    <glyph glyph-name="b" unicode="b" 
d="M438 255q0 38 -5 76q-7 38 -25 68q-16 32 -46 50q-30 19 -75 19q-42 0 -71 -19q-29 -20 -47 -52q-34 -67 -33 -142q-1 -73 34 -141q18 -32 47 -51q28 -21 70 -21q45 0 75 21q30 19 46 49q18 32 25 70q5 37 5 73zM73 750h63v-326h2q4 11 16 28q11 16 30 31q20 17 48 28
t65 11q112 -1 162 -75q48 -73 48 -192q0 -115 -52 -190q-53 -75 -158 -77q-109 -1 -159 93h-2v-81h-63v750z" />
    <glyph glyph-name="c" unicode="c" horiz-adv-x="444" 
d="M411 442q-54 25 -109 26q-92 -1 -141 -59q-51 -59 -51 -154q0 -89 50 -149q49 -63 135 -64q59 0 115 23l6 -59q-62 -19 -131 -18q-123 2 -183 81q-61 77 -61 186q1 121 70 193q68 73 182 74q47 0 78 -7q16 -3 28 -6q11 -4 17 -7z" />
    <glyph glyph-name="d" unicode="d" 
d="M118 255q0 -36 7 -73q8 -38 24 -70q18 -30 47 -49q28 -21 73 -21q42 0 72 21q28 19 46 51q34 68 33 141q0 36 -7 74q-8 36 -26 68t-46 52q-30 19 -72 19q-45 0 -73 -19q-29 -18 -47 -50q-16 -30 -24 -68q-7 -38 -7 -76zM483 0h-63v81h-2q-50 -94 -159 -93q-105 2 -157 77
q-53 75 -53 190q-1 119 49 192q50 74 161 75q38 0 66 -11q29 -11 48 -28q39 -35 45 -59h2v326h63v-750z" />
    <glyph glyph-name="e" unicode="e" horiz-adv-x="500" 
d="M390 291q0 70 -29 122q-31 53 -101 55q-69 -2 -109 -56q-41 -54 -41 -121h280zM421 16q-72 -27 -148 -28q-125 2 -179 77q-54 73 -53 190q1 119 60 193q57 73 155 74q107 -2 156 -75q47 -72 47 -178v-32h-349q0 -83 43 -137q42 -57 125 -58q37 0 78 13q41 11 65 25v-64z
" />
    <glyph glyph-name="f" unicode="f" horiz-adv-x="333" 
d="M122 456h-103v54h103v37q0 41 4 80q2 38 15 68q13 31 41 49q27 18 75 18q16 0 33 -1q17 -3 26 -9l-4 -55q-21 11 -50 11q-31 0 -47 -14q-17 -16 -23 -39t-6 -49q-1 -27 -1 -52v-44h115v-54h-115v-456h-63v456z" />
    <glyph glyph-name="g" unicode="g" 
d="M483 42q0 -109 -53 -182q-55 -74 -186 -76q-50 1 -92 11q-41 10 -62 16l5 63q63 -34 150 -36q61 1 96 22q36 20 53 56q18 36 23 83q4 47 4 101h-2q-54 -102 -155 -100q-120 3 -168 86q-25 38 -35 82q-12 44 -12 87q-1 119 49 192q50 74 161 75q50 0 88 -11q37 -14 71 -59
h2v58h63v-468zM118 255q-1 -78 34 -137q34 -62 113 -64q85 2 121 66q34 62 34 135q0 95 -32 153q-33 59 -119 60q-45 0 -73 -19q-29 -18 -47 -50q-16 -30 -24 -68q-7 -38 -7 -76z" />
    <glyph glyph-name="h" unicode="h" 
d="M79 750h63v-326h2q21 43 62 71q41 26 97 27q102 -1 139 -60q36 -60 35 -157v-305h-63v304q0 34 -4 64q-4 29 -17 51q-24 48 -100 49q-82 -2 -117 -63t-34 -132v-273h-63v750z" />
    <glyph glyph-name="i" unicode="i" horiz-adv-x="222" 
d="M142 646h-63v84h63v-84zM79 510h63v-510h-63v510z" />
    <glyph glyph-name="j" unicode="j" horiz-adv-x="222" 
d="M142 646h-63v84h63v-84zM-28 -156q17 -5 38 -6q47 1 59 30q11 28 10 68v574h63v-582q1 -63 -22 -102q-13 -19 -35 -30q-24 -12 -58 -12q-40 1 -55 5v55z" />
    <glyph glyph-name="k" unicode="k" horiz-adv-x="500" 
d="M79 750h63v-449l228 209h81l-249 -226l279 -284h-87l-252 262v-262h-63v750z" />
    <glyph glyph-name="l" unicode="l" horiz-adv-x="222" 
d="M79 750h63v-750h-63v750z" />
    <glyph glyph-name="m" unicode="m" horiz-adv-x="833" 
d="M695 0v339q0 28 -4 52q-6 23 -19 40q-12 18 -33 28q-21 9 -52 9q-53 0 -94 -44q-42 -46 -43 -142v-282h-63v339q0 28 -4 52q-6 23 -19 40q-12 18 -33 28q-21 9 -52 9q-53 0 -94 -44q-42 -46 -43 -142v-282h-63v390q0 59 -4 120h61v-86l2 -1q7 14 19 31q10 17 28 32t45 26
q27 10 67 10q18 0 39 -4q20 -4 40 -16q20 -11 35 -32q15 -22 21 -56h2q19 46 61 77q41 30 102 31q78 -1 120 -48q41 -46 41 -123v-351h-63z" />
    <glyph glyph-name="n" unicode="n" 
d="M79 390q0 59 -4 120h61v-91h2q9 18 21 36t30 33q19 16 47 25t67 9q94 -1 135 -56q39 -54 39 -140v-326h-63v310q0 73 -27 116q-29 41 -94 42q-84 -2 -118 -60q-18 -27 -25 -59q-8 -33 -8 -67v-282h-63v390z" />
    <glyph glyph-name="o" unicode="o" 
d="M109 255q0 -91 44 -150q42 -62 125 -63q83 1 127 63q42 59 42 150t-42 152q-44 60 -127 61q-83 -1 -125 -61q-44 -61 -44 -152zM40 255q0 109 58 186q58 79 180 81q124 -2 182 -81q56 -77 56 -186q0 -107 -56 -185q-58 -80 -182 -82q-122 2 -180 82q-58 78 -58 185z" />
    <glyph glyph-name="p" unicode="p" 
d="M438 255q0 38 -5 76q-7 38 -25 68q-16 32 -46 50q-30 19 -75 19q-42 0 -70 -19q-29 -20 -47 -52t-25 -68q-9 -38 -9 -74q-1 -73 34 -141q18 -32 47 -51q28 -21 70 -21q45 0 75 21q30 19 46 49q18 32 25 70q5 37 5 73zM73 510h63l-4 -93h2q6 11 18 30q11 17 30 34t47 30
q28 11 68 11q112 -1 162 -75q48 -73 48 -192q0 -115 -52 -190q-53 -75 -158 -77q-116 0 -159 99h-2v-297h-63v720z" />
    <glyph glyph-name="q" unicode="q" 
d="M118 255q0 -36 7 -73q8 -38 24 -70q18 -30 47 -49q28 -21 73 -21q42 0 72 21q28 19 46 51q34 68 33 141q0 36 -7 74q-8 36 -26 68t-46 52q-30 19 -72 19q-45 0 -73 -19q-29 -18 -47 -50q-16 -30 -24 -68q-7 -38 -7 -76zM483 -210h-63v297h-2q-43 -99 -159 -99
q-105 2 -157 77q-53 75 -53 190q-1 119 49 192q50 74 161 75q40 0 70 -11q28 -12 46 -29q19 -17 29 -32t14 -23h2v83h63v-720z" />
    <glyph glyph-name="r" unicode="r" horiz-adv-x="333" 
d="M79 396q0 71 -4 114h63v-98h2q18 45 51 77q32 32 80 33q25 -1 44 -6v-66q-21 6 -46 6q-37 -1 -61 -18q-24 -18 -39 -49q-14 -30 -20 -65q-7 -37 -7 -72v-252h-63v396z" />
    <glyph glyph-name="s" unicode="s" horiz-adv-x="389" 
d="M40 74q58 -31 133 -32q47 0 80 25q32 23 33 66q-1 45 -37 71q-36 25 -85 45q-23 11 -44 23t-40 27q-17 16 -28 37q-11 20 -11 47q1 76 52 108q49 31 114 31q22 0 57 -4q35 -6 69 -19l-6 -55q-55 23 -113 24q-49 0 -78 -18q-15 -9 -23 -25q-9 -16 -9 -42q0 -16 11 -30
q11 -13 29 -24q18 -10 41 -21q23 -10 45 -22q50 -21 87 -56t38 -97q0 -40 -16 -67q-17 -28 -43 -45q-56 -33 -119 -33q-74 0 -143 24l6 62v0z" />
    <glyph glyph-name="t" unicode="t" horiz-adv-x="333" 
d="M299 456h-116v-330q0 -35 16 -59q15 -25 52 -25q34 0 58 12l4 -52q-11 -4 -31 -9q-21 -5 -46 -5q-41 0 -65 14q-23 14 -35 37q-10 24 -13 54t-3 65v298h-100v54h100v123l63 22v-145h116v-54z" />
    <glyph glyph-name="u" unicode="u" 
d="M477 120q-1 -58 4 -120h-61v91h-2q-7 -17 -19 -34q-12 -18 -31 -34q-19 -15 -47 -24q-28 -11 -68 -11q-93 1 -134 56q-41 54 -40 140v326h63v-310q0 -73 29 -114q28 -44 92 -44q43 0 73 18q30 17 46 44q18 28 25 60t7 64v282h63v-390z" />
    <glyph glyph-name="v" unicode="v" horiz-adv-x="444" 
d="M256 0h-74l-173 510h69l141 -441h2l148 441h66z" />
    <glyph glyph-name="w" unicode="w" horiz-adv-x="778" 
d="M603 0h-76l-139 441h-2l-139 -441h-76l-164 510h69l134 -441h2l142 441h76l135 -441h2l141 441h63z" />
    <glyph glyph-name="x" unicode="x" horiz-adv-x="444" 
d="M187 270l-162 240h78l121 -190l123 190h72l-158 -240l175 -270h-78l-134 220l-143 -220h-73z" />
    <glyph glyph-name="y" unicode="y" horiz-adv-x="444" 
d="M221 85h1l147 425h66l-204 -586q-17 -55 -47 -96q-15 -20 -36 -31q-21 -12 -48 -13q-35 0 -68 8l6 54q9 -3 20 -5q11 -3 27 -3q39 1 59 32q20 29 33 79l13 45l-181 516h69z" />
    <glyph glyph-name="z" unicode="z" horiz-adv-x="444" 
d="M32 53l307 403h-295v54h368v-54l-307 -402h307v-54h-380v53z" />
    <glyph glyph-name="braceleft" unicode="{" horiz-adv-x="278" 
d="M273 708h-50q-24 -1 -34 -28t-10 -65v-165q0 -36 -9 -61q-10 -27 -24 -43q-30 -33 -51 -37v-2q10 -1 24 -10t27 -25q14 -16 24 -43q9 -27 9 -65v-162q0 -37 10 -64q10 -29 34 -30h50v-48h-56q-43 1 -71 33q-29 32 -30 89v170q0 56 -18 93q-19 38 -60 39v48q41 1 60 41
q18 37 18 94v168q0 59 31 90q28 31 71 31h55v-48z" />
    <glyph glyph-name="bar" unicode="|" horiz-adv-x="222" 
d="M146 750v-1000h-69v1000h69z" />
    <glyph glyph-name="braceright" unicode="}" horiz-adv-x="278" 
d="M5 -92h50q24 1 34 29q10 27 10 64v165q0 38 11 63q9 26 23 42q30 32 50 36v2q-8 3 -22 12t-28 25t-23 43q-11 26 -11 63v162q0 39 -10 66t-34 28h-50v48h56q44 0 72 -31q28 -32 29 -91v-170q0 -55 19 -93t59 -39v-48q-40 -1 -59 -39q-19 -39 -19 -96v-168q-1 -57 -29 -89
t-73 -32h-55v48z" />
    <glyph glyph-name="asciitilde" unicode="~" horiz-adv-x="600" 
d="M531 273q-16 -33 -45 -60q-15 -13 -34 -21q-21 -10 -46 -10q-27 0 -56 12q-29 11 -58 25q-58 34 -99 36q-29 -1 -50 -22q-20 -22 -38 -51l-36 51q16 33 46 62q30 28 79 29q28 0 58 -11q29 -11 56 -25q29 -14 55 -25q24 -12 44 -12q30 1 51 24q21 21 37 49z" />
    <glyph glyph-name="uni00A0" unicode="&#xa0;" horiz-adv-x="278" 
 />
    <glyph glyph-name="exclamdown" unicode="&#xa1;" horiz-adv-x="389" 
d="M235 426h-81v84h81v-84zM166 341h57l12 -529h-81z" />
    <glyph glyph-name="cent" unicode="&#xa2;" 
d="M454 588l-25 -74q32 -7 45 -12l-5 -60q-13 6 -27 11q-15 5 -30 8l-134 -402q35 -17 75 -17q59 0 115 23l6 -59q-62 -19 -131 -18q-45 0 -84 14l-31 -93h-47l37 110q-59 34 -89 97t-30 139q1 121 70 193q68 73 182 74q18 0 34 -2l22 68h47zM367 467q-4 1 -7 1
q-92 -1 -141 -59q-51 -59 -51 -154q1 -110 71 -172z" />
    <glyph glyph-name="sterling" unicode="&#xa3;" 
d="M67 60h103v287h-91v54h91v49q0 12 2 24q0 12 1 24t4 24q2 12 3 22q6 23 15 44q7 20 19 38q46 77 175 79q82 -2 112 -21l-10 -62q-13 10 -39 16q-25 7 -63 7q-49 0 -79 -17q-30 -19 -46 -48q-14 -29 -20 -64q-5 -37 -5 -72v-43h166v-54h-166v-287h246v-60h-418v60z" />
    <glyph glyph-name="currency" unicode="&#xa4;" 
d="M278 161q81 1 130 57q48 54 49 131q-1 77 -49 132q-49 55 -130 56q-78 -5 -127 -58q-51 -54 -52 -130q1 -83 52 -136q50 -53 127 -52zM84 196q-54 68 -54 153q0 41 13 80t41 71l-57 55l43 45l57 -56q67 52 151 53q87 -1 152 -53l54 56l45 -45l-54 -55q51 -66 51 -151
q0 -86 -51 -153l54 -55l-45 -43l-54 56q-63 -53 -152 -53q-87 0 -151 53l-57 -56l-43 43z" />
    <glyph glyph-name="yen" unicode="&#xa5;" 
d="M244 175h-144v48h144v75l-3 6h-141v48h114l-195 346h76l183 -337l188 337h71l-194 -346h114v-48h-141l-3 -6v-75h144v-48h-144v-175h-69v175z" />
    <glyph glyph-name="brokenbar" unicode="&#xa6;" horiz-adv-x="222" 
d="M146 175v-350h-69v350h69zM146 675v-350h-69v350h69z" />
    <glyph glyph-name="section" unicode="&#xa7;" 
d="M226 423l-7 -4q-15 -8 -37 -36q-23 -29 -24 -69q0 -26 18 -46q17 -21 47 -34l117 -51l21 21q37 32 38 79q-1 42 -24 63q-12 12 -27 20q-17 9 -35 16zM414 630q-17 10 -50 18q-34 8 -69 8q-40 0 -83 -18q-20 -10 -33 -27q-15 -16 -15 -40q1 -47 48 -73q44 -27 102 -49
q60 -21 104 -56q45 -35 46 -98q-1 -45 -22 -76q-22 -31 -53 -60q33 -16 55 -46t23 -72q0 -48 -22 -79t-54 -49t-66 -25q-35 -8 -61 -8q-87 0 -169 28l7 59q77 -33 162 -33q48 0 90 26q43 25 44 79q0 24 -12 41q-14 17 -35 29q-46 24 -107 45q-60 21 -106 57q-48 35 -49 99
q0 40 25 73q24 31 54 56l9 8l-7 4q-31 18 -52 45q-23 25 -23 64q2 82 62 117q57 33 119 33q47 0 85 -7q37 -7 60 -15z" />
    <glyph glyph-name="dieresis" unicode="&#xa8;" horiz-adv-x="222" 
d="M-12 730h75v-84h-75v84zM159 730h75v-84h-75v84z" />
    <glyph glyph-name="copyright" unicode="&#xa9;" horiz-adv-x="800" 
d="M39 349q2 154 107 256q102 103 254 105q154 -2 256 -105q103 -102 105 -256q-2 -152 -105 -254q-102 -105 -256 -107q-152 2 -254 107q-105 102 -107 254zM591 280q-38 -153 -178 -156q-99 1 -156 66q-59 62 -60 159q0 100 57 162q56 63 156 64q71 0 120 -38
q48 -38 60 -113h-60q-9 45 -40 71q-30 26 -79 26q-71 -1 -107 -48q-38 -46 -38 -123q0 -71 40 -120q39 -51 107 -52q49 0 79 29q30 28 38 73h61zM108 349q1 -132 84 -218q81 -88 209 -89q127 1 208 89q82 86 83 218q-1 134 -83 219q-81 86 -208 88q-128 -2 -209 -88
q-83 -85 -84 -219z" />
    <glyph glyph-name="ordfeminine" unicode="&#xaa;" horiz-adv-x="325" 
d="M238 548h-12q-25 0 -51 -1q-26 -3 -49 -10q-50 -14 -51 -53q0 -28 21 -41q19 -13 48 -13q36 -1 56 10q19 11 28 28t10 34v28v18zM242 444h-2q-11 -26 -39 -40q-28 -16 -62 -16q-62 0 -88 26q-28 24 -27 65q0 40 21 63q19 23 50 33t67 13q35 2 68 2h8v15q0 9 -1 21
q-1 11 -9 20q-6 11 -21 17q-15 5 -40 5q-52 0 -98 -24v46q20 8 47 14q26 6 57 6q117 -1 116 -114v-135q-1 -34 3 -65h-50v48z" />
    <glyph glyph-name="guillemotleft" unicode="&#xab;" 
d="M332 269l133 -205h-59l-140 205l140 205h59zM157 269l133 -205h-59l-140 205l140 205h59z" />
    <glyph glyph-name="logicalnot" unicode="&#xac;" horiz-adv-x="600" 
d="M46 388h507v-274h-69v205h-438v69z" />
    <glyph glyph-name="uni00AD" unicode="&#xad;" horiz-adv-x="333" 
d="M41 304h251v-69h-251v69z" />
    <glyph glyph-name="registered" unicode="&#xae;" horiz-adv-x="800" 
d="M331 379h82q41 -1 64 13t23 53q-1 36 -26 50q-27 12 -61 12h-82v-128zM262 561h162q145 0 145 -119q0 -52 -29 -83q-29 -34 -80 -34l120 -187h-73l-118 187h-58v-187h-69v423zM108 349q1 -132 84 -218q81 -88 209 -89q127 1 208 89q82 86 83 218q-1 134 -83 219
q-81 86 -208 88q-128 -2 -209 -88q-83 -85 -84 -219zM39 349q2 154 107 256q102 103 254 105q154 -2 256 -105q103 -102 105 -256q-2 -152 -105 -254q-102 -105 -256 -107q-152 2 -254 107q-105 102 -107 254z" />
    <glyph glyph-name="macron" unicode="&#xaf;" horiz-adv-x="222" 
d="M-11 668h244v-54h-244v54z" />
    <glyph glyph-name="degree" unicode="&#xb0;" horiz-adv-x="400" 
d="M200 705q67 -1 112 -41t46 -108q-1 -67 -46 -107q-45 -41 -112 -42q-65 1 -110 42q-47 40 -48 107q1 68 48 108q45 40 110 41zM200 657q-46 0 -76 -26q-31 -27 -31 -75q1 -43 33 -71q32 -30 74 -30q44 0 75 30q31 28 32 71q-1 48 -30 75q-29 26 -77 26z" />
    <glyph glyph-name="plusminus" unicode="&#xb1;" horiz-adv-x="600" 
d="M46 69h507v-69h-507v69zM46 338h219v169h69v-169h219v-69h-219v-169h-69v169h-219v69z" />
    <glyph glyph-name="uni00B2" unicode="&#xb2;" horiz-adv-x="361" 
d="M45 325l106 95q43 41 74 84q30 43 31 82q0 35 -22 53t-56 18q-58 -1 -109 -30l-8 50q56 27 117 28q58 0 97 -26q37 -28 38 -90q-1 -61 -39 -107q-38 -48 -80 -85l-74 -65h197v-48h-272v41z" />
    <glyph glyph-name="uni00B3" unicode="&#xb3;" horiz-adv-x="361" 
d="M99 524h28q17 0 40 3q23 2 44 9q22 7 37 22q14 15 14 38q-2 41 -37 52q-34 10 -63 9q-57 -1 -103 -23l-4 52q26 11 60 15q33 4 59 4q54 0 99 -23q22 -12 34 -32q12 -21 12 -50q0 -37 -26 -63t-69 -35v-2q48 -3 73 -31q24 -30 24 -73q-2 -62 -54 -90q-51 -29 -113 -29
q-65 -1 -120 17l5 52q59 -22 120 -21q42 0 73 21q31 20 32 56q1 28 -13 44q-14 15 -37 21q-48 10 -87 9h-28v48z" />
    <glyph glyph-name="acute" unicode="&#xb4;" horiz-adv-x="222" 
d="M146 716h79l-126 -144h-46z" />
    <glyph glyph-name="uni00B5" unicode="&#xb5;" 
d="M79 510h63v-310q0 -73 29 -114q28 -44 92 -44q43 0 73 18q30 17 46 44q18 28 25 60t7 64v282h63v-390q-1 -58 4 -120h-61v91h-2q-7 -17 -19 -34q-12 -18 -31 -34q-19 -15 -47 -24q-28 -11 -68 -11q-59 0 -111 29v-227h-63v720z" />
    <glyph glyph-name="paragraph" unicode="&#xb6;" horiz-adv-x="600" 
d="M256 320q-92 1 -149 55q-58 51 -59 131q4 193 228 192h240v-806h-63v752h-134v-752h-63v428z" />
    <glyph glyph-name="periodcentered" unicode="&#xb7;" horiz-adv-x="278" 
d="M92 311q0 24 16 36q15 12 32 12q18 0 32 -12t15 -36q-1 -23 -15 -35t-32 -12q-17 0 -32 12q-16 12 -16 35z" />
    <glyph glyph-name="cedilla" unicode="&#xb8;" horiz-adv-x="222" 
d="M104 0h27l-19 -54q15 3 33 3q31 0 52 -16q20 -17 21 -49q-2 -42 -37 -56q-36 -13 -73 -13q-33 1 -63 11q-30 9 -38 11l7 37q11 -7 36 -17q25 -11 53 -12q50 0 52 37q-1 37 -38 37q-21 0 -42 -4z" />
    <glyph glyph-name="uni00B9" unicode="&#xb9;" horiz-adv-x="361" 
d="M232 284h-57v366l-76 -58l-22 33l103 80h52v-421z" />
    <glyph glyph-name="ordmasculine" unicode="&#xba;" horiz-adv-x="361" 
d="M74 548q0 -52 29 -84q28 -34 78 -34q52 0 79 34q27 32 27 84q0 50 -27 84q-27 35 -79 36q-50 -1 -78 -36q-29 -34 -29 -84zM23 548q0 67 38 114t120 48q82 -2 121 -47q36 -46 36 -115q0 -63 -36 -109q-39 -47 -121 -51q-82 2 -120 49q-38 46 -38 111z" />
    <glyph glyph-name="guillemotright" unicode="&#xbb;" 
d="M224 269l-133 205h59l140 -205l-140 -205h-59zM399 269l-133 205h59l140 -205l-140 -205h-59z" />
    <glyph glyph-name="onequarter" unicode="&#xbc;" horiz-adv-x="834" 
d="M431 140l208 281h68v-282h56v-48h-56v-91h-57v91h-219v49zM650 352h-2l-160 -213h162v213zM226 284h-57v366l-76 -58l-22 33l103 80h52v-421zM573 720h57l-443 -742h-57z" />
    <glyph glyph-name="onehalf" unicode="&#xbd;" horiz-adv-x="834" 
d="M503 41l106 95q43 41 74 84q30 43 31 82q0 35 -22 53t-56 18q-58 -1 -109 -30l-8 50q56 27 117 28q58 0 97 -26q37 -28 38 -90q-1 -61 -39 -107q-38 -48 -80 -85l-74 -65h197v-48h-272v41zM214 284h-57v366l-76 -58l-22 33l103 80h52v-421zM560 720h57l-443 -742h-57z
" />
    <glyph glyph-name="threequarters" unicode="&#xbe;" horiz-adv-x="834" 
d="M118 524h28q17 0 40 3q23 2 44 9q22 7 37 22q14 15 14 38q-2 41 -37 52q-34 10 -63 9q-57 -1 -103 -23l-4 52q26 11 60 15q33 4 59 4q54 0 99 -23q22 -12 34 -32q12 -21 12 -50q0 -37 -26 -63t-69 -35v-2q48 -3 73 -31q24 -30 24 -73q-2 -62 -54 -90q-51 -29 -113 -29
q-65 -1 -120 17l5 52q59 -22 120 -21q42 0 73 21q31 20 32 56q1 28 -13 44q-14 15 -37 21q-48 10 -87 9h-28v48zM450 140l208 281h68v-282h56v-48h-56v-91h-57v91h-219v49zM669 352h-2l-160 -213h162v213zM650 720h58l-443 -742h-58z" />
    <glyph glyph-name="questiondown" unicode="&#xbf;" horiz-adv-x="500" 
d="M318 426h-81v84h81v-84zM414 -175q-71 -24 -146 -25q-79 0 -134 44q-57 43 -58 135q0 62 28 103q25 40 58 73q34 34 59 73t26 98v15h63v-13q-1 -66 -25 -108t-57 -74q-15 -16 -29 -33q-15 -18 -27 -37q-26 -38 -27 -97q0 -56 37 -86q34 -32 89 -33q41 1 75 9t65 19z" />
    <glyph glyph-name="Agrave" unicode="&#xc0;" horiz-adv-x="667" 
d="M181 247h303l-151 385zM299 698h78l277 -698h-72l-75 187h-352l-75 -187h-67zM387 738h-46l-126 144h79z" />
    <glyph glyph-name="Aacute" unicode="&#xc1;" horiz-adv-x="667" 
d="M181 247h303l-151 385zM299 698h78l277 -698h-72l-75 187h-352l-75 -187h-67zM386 882h79l-126 -144h-46z" />
    <glyph glyph-name="Acircumflex" unicode="&#xc2;" horiz-adv-x="667" 
d="M181 247h303l-151 385zM299 698h78l277 -698h-72l-75 187h-352l-75 -187h-67zM299 882h82l93 -144h-46l-88 102l-88 -102h-46z" />
    <glyph glyph-name="Atilde" unicode="&#xc3;" horiz-adv-x="667" 
d="M181 247h303l-151 385zM299 698h78l277 -698h-72l-75 187h-352l-75 -187h-67zM204 755q8 35 27 62q20 27 54 28q31 -1 61 -12q30 -12 44 -13q17 0 31 9q13 9 18 25h37q-9 -53 -35 -71q-27 -18 -48 -17q-35 1 -62 13q-27 11 -47 12q-19 0 -27 -9q-10 -9 -17 -27h-36z" />
    <glyph glyph-name="Adieresis" unicode="&#xc4;" horiz-adv-x="667" 
d="M181 247h303l-151 385zM299 698h78l277 -698h-72l-75 187h-352l-75 -187h-67zM217 842h75v-84h-75v84zM388 842h75v-84h-75v84z" />
    <glyph glyph-name="Aring" unicode="&#xc5;" horiz-adv-x="667" 
d="M181 247h303l-151 385zM299 698h78l277 -698h-72l-75 187h-352l-75 -187h-67zM281 816q0 -26 18 -41q17 -18 42 -18q26 0 43 18q17 15 17 41t-17 43q-17 16 -43 16q-25 0 -42 -16q-18 -17 -18 -43zM245 816q0 42 28 68q27 26 68 27q41 -1 69 -27q26 -26 27 -68
q-1 -41 -27 -67q-28 -28 -69 -28t-68 28q-28 26 -28 67z" />
    <glyph glyph-name="AE" unicode="&#xc6;" horiz-adv-x="889" 
d="M436 698h381v-60h-271v-249h257v-60h-257v-269h283v-60h-351v187h-286l-116 -187h-76zM477 644h-2l-246 -397h248v397z" />
    <glyph glyph-name="Ccedilla" unicode="&#xc7;" horiz-adv-x="667" 
d="M565 620q-34 18 -75 25q-43 5 -81 5q-136 -2 -209 -85q-74 -83 -74 -216q0 -134 73 -216q72 -84 210 -85q36 0 81 7q44 6 75 23l4 -60q-31 -16 -77 -23q-47 -7 -83 -7q-8 0 -14 1l-15 -43q15 3 33 3q31 0 52 -16q20 -17 21 -49q-2 -42 -37 -56q-36 -13 -73 -13
q-33 1 -63 11q-30 9 -38 11l7 37q11 -7 36 -17q25 -11 53 -12q50 0 52 37q-1 37 -38 37q-21 0 -42 -4l25 76q-148 14 -228 110q-83 95 -83 248q1 162 95 261q93 98 257 100q34 0 83 -5q48 -6 77 -21l-4 -64v0z" />
    <glyph glyph-name="Egrave" unicode="&#xc8;" horiz-adv-x="500" 
d="M86 698h342v-60h-273v-249h259v-60h-259v-269h285v-60h-354v698zM299 738h-46l-126 144h79z" />
    <glyph glyph-name="Eacute" unicode="&#xc9;" horiz-adv-x="500" 
d="M86 698h342v-60h-273v-249h259v-60h-259v-269h285v-60h-354v698zM297 882h79l-126 -144h-46z" />
    <glyph glyph-name="Ecircumflex" unicode="&#xca;" horiz-adv-x="500" 
d="M86 698h342v-60h-273v-249h259v-60h-259v-269h285v-60h-354v698zM209 882h82l93 -144h-46l-88 102l-88 -102h-46z" />
    <glyph glyph-name="Edieresis" unicode="&#xcb;" horiz-adv-x="500" 
d="M86 698h342v-60h-273v-249h259v-60h-259v-269h285v-60h-354v698zM129 842h75v-84h-75v84zM300 842h75v-84h-75v84z" />
    <glyph glyph-name="Igrave" unicode="&#xcc;" horiz-adv-x="222" 
d="M77 698h69v-698h-69v698zM160 738h-46l-126 144h79z" />
    <glyph glyph-name="Iacute" unicode="&#xcd;" horiz-adv-x="222" 
d="M77 698h69v-698h-69v698zM155 882h79l-126 -144h-46z" />
    <glyph glyph-name="Icircumflex" unicode="&#xce;" horiz-adv-x="222" 
d="M77 698h69v-698h-69v698zM68 882h82l93 -144h-46l-88 102l-88 -102h-46z" />
    <glyph glyph-name="Idieresis" unicode="&#xcf;" horiz-adv-x="222" 
d="M77 698h69v-698h-69v698zM-12 842h75v-84h-75v84zM159 842h75v-84h-75v84z" />
    <glyph glyph-name="Eth" unicode="&#xd0;" horiz-adv-x="667" 
d="M149 389h213v-60h-213v-269h57q319 -7 327 294q-1 165 -92 226q-91 59 -246 58h-46v-249zM80 698h118q397 6 404 -348q-2 -187 -113 -269q-110 -81 -287 -81h-122v329h-69v60h69v309z" />
    <glyph glyph-name="Ntilde" unicode="&#xd1;" horiz-adv-x="667" 
d="M77 698h87l355 -614h2v614h69v-698h-93l-349 602h-2v-602h-69v698zM203 755q8 35 27 62q20 27 54 28q31 -1 61 -12q30 -12 44 -13q17 0 31 9q13 9 18 25h37q-9 -53 -35 -71q-27 -18 -48 -17q-35 1 -62 13q-27 11 -47 12q-19 0 -27 -9q-10 -9 -17 -27h-36z" />
    <glyph glyph-name="Ograve" unicode="&#xd2;" horiz-adv-x="722" 
d="M361 650q-122 -3 -180 -94t-58 -207t58 -205q58 -94 180 -96q123 2 181 96q57 89 57 205t-57 207q-58 91 -181 94zM54 349q-1 147 75 252q75 106 232 109q158 -3 234 -109q75 -105 73 -252q-1 -163 -78 -260q-78 -99 -229 -101q-150 2 -227 101q-78 97 -80 260zM415 738
h-46l-126 144h79z" />
    <glyph glyph-name="Oacute" unicode="&#xd3;" horiz-adv-x="722" 
d="M361 650q-122 -3 -180 -94t-58 -207t58 -205q58 -94 180 -96q123 2 181 96q57 89 57 205t-57 207q-58 91 -181 94zM54 349q-1 147 75 252q75 106 232 109q158 -3 234 -109q75 -105 73 -252q-1 -163 -78 -260q-78 -99 -229 -101q-150 2 -227 101q-78 97 -80 260zM412 882
h79l-126 -144h-46z" />
    <glyph glyph-name="Ocircumflex" unicode="&#xd4;" horiz-adv-x="722" 
d="M361 650q-122 -3 -180 -94t-58 -207t58 -205q58 -94 180 -96q123 2 181 96q57 89 57 205t-57 207q-58 91 -181 94zM54 349q-1 147 75 252q75 106 232 109q158 -3 234 -109q75 -105 73 -252q-1 -163 -78 -260q-78 -99 -229 -101q-150 2 -227 101q-78 97 -80 260zM323 882
h82l93 -144h-46l-88 102l-88 -102h-46z" />
    <glyph glyph-name="Otilde" unicode="&#xd5;" horiz-adv-x="722" 
d="M361 650q-122 -3 -180 -94t-58 -207t58 -205q58 -94 180 -96q123 2 181 96q57 89 57 205t-57 207q-58 91 -181 94zM54 349q-1 147 75 252q75 106 232 109q158 -3 234 -109q75 -105 73 -252q-1 -163 -78 -260q-78 -99 -229 -101q-150 2 -227 101q-78 97 -80 260zM230 755
q8 35 27 62q20 27 54 28q31 -1 61 -12q30 -12 44 -13q17 0 31 9q13 9 18 25h37q-9 -53 -35 -71q-27 -18 -48 -17q-35 1 -62 13q-27 11 -47 12q-19 0 -27 -9q-10 -9 -17 -27h-36z" />
    <glyph glyph-name="Odieresis" unicode="&#xd6;" horiz-adv-x="722" 
d="M361 650q-122 -3 -180 -94t-58 -207t58 -205q58 -94 180 -96q123 2 181 96q57 89 57 205t-57 207q-58 91 -181 94zM54 349q-1 147 75 252q75 106 232 109q158 -3 234 -109q75 -105 73 -252q-1 -163 -78 -260q-78 -99 -229 -101q-150 2 -227 101q-78 97 -80 260zM243 842
h75v-84h-75v84zM414 842h75v-84h-75v84z" />
    <glyph glyph-name="multiply" unicode="&#xd7;" horiz-adv-x="600" 
d="M71 437l49 49l181 -181l179 181l50 -49l-180 -180l180 -181l-50 -50l-179 182l-181 -182l-49 50l181 181z" />
    <glyph glyph-name="Oslash" unicode="&#xd8;" horiz-adv-x="722" 
d="M693 694l-91 -105q68 -100 66 -240q-1 -163 -78 -260q-78 -99 -229 -101q-137 1 -212 83l-81 -93l-39 33l88 101q-61 92 -63 237q-1 147 75 252q75 106 232 109q132 -1 207 -81l86 98zM196 124q57 -74 165 -76q123 2 181 96q57 89 57 205q0 101 -45 185zM523 577
q-58 71 -162 73q-122 -3 -180 -94t-58 -207q0 -99 43 -180z" />
    <glyph glyph-name="Ugrave" unicode="&#xd9;" horiz-adv-x="667" 
d="M587 244q-1 -76 -24 -126q-25 -51 -63 -79q-39 -28 -82 -39q-44 -12 -84 -12q-38 0 -81 12q-44 11 -83 39q-38 28 -63 79q-26 50 -26 126v454h69v-454q0 -87 47 -140q47 -55 137 -56q92 1 138 56q46 53 46 140v454h69v-454zM387 738h-46l-126 144h79z" />
    <glyph glyph-name="Uacute" unicode="&#xda;" horiz-adv-x="667" 
d="M587 244q-1 -76 -24 -126q-25 -51 -63 -79q-39 -28 -82 -39q-44 -12 -84 -12q-38 0 -81 12q-44 11 -83 39q-38 28 -63 79q-26 50 -26 126v454h69v-454q0 -87 47 -140q47 -55 137 -56q92 1 138 56q46 53 46 140v454h69v-454zM383 882h79l-126 -144h-46z" />
    <glyph glyph-name="Ucircumflex" unicode="&#xdb;" horiz-adv-x="667" 
d="M587 244q-1 -76 -24 -126q-25 -51 -63 -79q-39 -28 -82 -39q-44 -12 -84 -12q-38 0 -81 12q-44 11 -83 39q-38 28 -63 79q-26 50 -26 126v454h69v-454q0 -87 47 -140q47 -55 137 -56q92 1 138 56q46 53 46 140v454h69v-454zM296 882h82l93 -144h-46l-88 102l-88 -102h-46
z" />
    <glyph glyph-name="Udieresis" unicode="&#xdc;" horiz-adv-x="667" 
d="M587 244q-1 -76 -24 -126q-25 -51 -63 -79q-39 -28 -82 -39q-44 -12 -84 -12q-38 0 -81 12q-44 11 -83 39q-38 28 -63 79q-26 50 -26 126v454h69v-454q0 -87 47 -140q47 -55 137 -56q92 1 138 56q46 53 46 140v454h69v-454zM215 842h75v-84h-75v84zM386 842h75v-84h-75
v84z" />
    <glyph glyph-name="Yacute" unicode="&#xdd;" horiz-adv-x="611" 
d="M271 296l-259 402h80l213 -341l219 341h75l-259 -402v-296h-69v296zM357 882h79l-126 -144h-46z" />
    <glyph glyph-name="Thorn" unicode="&#xde;" horiz-adv-x="500" 
d="M155 232h48q40 0 76 5q36 4 65 17q29 14 45 42t16 74q-2 136 -138 138h-112v-276zM86 698h69v-130h103q211 0 216 -198q-1 -97 -64 -147q-62 -51 -159 -51h-96v-172h-69v698z" />
    <glyph glyph-name="germandbls" unicode="&#xdf;" 
d="M79 542q0 99 49 159t151 61q184 -4 189 -186q-2 -141 -134 -174v-2q171 -20 172 -185q-1 -98 -57 -158q-57 -63 -160 -64q-16 0 -39 3q-24 2 -46 9l4 59q36 -18 82 -17q72 1 110 48q37 45 37 119q-1 87 -52 121q-51 32 -139 32h-10v54h18q65 0 105 42q39 41 40 111
q0 59 -31 96q-32 37 -89 38q-27 0 -51 -7q-24 -9 -44 -30q-18 -21 -29 -57q-13 -37 -13 -94v-520h-63v542z" />
    <glyph glyph-name="agrave" unicode="&#xe0;" horiz-adv-x="500" 
d="M366 257h-18q-41 0 -82 -2q-43 -4 -78 -17q-35 -12 -56 -37q-23 -25 -23 -67q0 -49 32 -70q30 -22 74 -22q55 0 87 22q31 21 45 50q15 31 17 61q2 31 2 51v31zM372 82h-2q-22 -45 -67 -69t-95 -25q-53 1 -86 17q-34 15 -52 38q-32 50 -30 89q0 64 31 101q30 37 77 53
q47 17 102 22q54 3 104 3h12v26q3 131 -116 131q-79 1 -150 -42v61q71 33 150 35q181 2 179 -190v-225q-1 -58 5 -107h-62v82zM309 567h-46l-126 144h79z" />
    <glyph glyph-name="aacute" unicode="&#xe1;" horiz-adv-x="500" 
d="M366 257h-18q-41 0 -82 -2q-43 -4 -78 -17q-35 -12 -56 -37q-23 -25 -23 -67q0 -49 32 -70q30 -22 74 -22q55 0 87 22q31 21 45 50q15 31 17 61q2 31 2 51v31zM372 82h-2q-22 -45 -67 -69t-95 -25q-53 1 -86 17q-34 15 -52 38q-32 50 -30 89q0 64 31 101q30 37 77 53
q47 17 102 22q54 3 104 3h12v26q3 131 -116 131q-79 1 -150 -42v61q71 33 150 35q181 2 179 -190v-225q-1 -58 5 -107h-62v82zM287 711h79l-126 -144h-46z" />
    <glyph glyph-name="acircumflex" unicode="&#xe2;" horiz-adv-x="500" 
d="M366 257h-18q-41 0 -82 -2q-43 -4 -78 -17q-35 -12 -56 -37q-23 -25 -23 -67q0 -49 32 -70q30 -22 74 -22q55 0 87 22q31 21 45 50q15 31 17 61q2 31 2 51v31zM372 82h-2q-22 -45 -67 -69t-95 -25q-53 1 -86 17q-34 15 -52 38q-32 50 -30 89q0 64 31 101q30 37 77 53
q47 17 102 22q54 3 104 3h12v26q3 131 -116 131q-79 1 -150 -42v61q71 33 150 35q181 2 179 -190v-225q-1 -58 5 -107h-62v82zM210 711h82l93 -144h-46l-88 102l-88 -102h-46z" />
    <glyph glyph-name="atilde" unicode="&#xe3;" horiz-adv-x="500" 
d="M366 257h-18q-41 0 -82 -2q-43 -4 -78 -17q-35 -12 -56 -37q-23 -25 -23 -67q0 -49 32 -70q30 -22 74 -22q55 0 87 22q31 21 45 50q15 31 17 61q2 31 2 51v31zM372 82h-2q-22 -45 -67 -69t-95 -25q-53 1 -86 17q-34 15 -52 38q-32 50 -30 89q0 64 31 101q30 37 77 53
q47 17 102 22q54 3 104 3h12v26q3 131 -116 131q-79 1 -150 -42v61q71 33 150 35q181 2 179 -190v-225q-1 -58 5 -107h-62v82zM112 590q8 35 27 62q20 27 54 28q31 -1 61 -12q30 -12 44 -13q17 0 31 9q13 9 18 25h37q-9 -53 -35 -71q-27 -18 -48 -17q-35 1 -62 13
q-27 11 -47 12q-19 0 -27 -9q-10 -9 -17 -27h-36z" />
    <glyph glyph-name="adieresis" unicode="&#xe4;" horiz-adv-x="500" 
d="M366 257h-18q-41 0 -82 -2q-43 -4 -78 -17q-35 -12 -56 -37q-23 -25 -23 -67q0 -49 32 -70q30 -22 74 -22q55 0 87 22q31 21 45 50q15 31 17 61q2 31 2 51v31zM372 82h-2q-22 -45 -67 -69t-95 -25q-53 1 -86 17q-34 15 -52 38q-32 50 -30 89q0 64 31 101q30 37 77 53
q47 17 102 22q54 3 104 3h12v26q3 131 -116 131q-79 1 -150 -42v61q71 33 150 35q181 2 179 -190v-225q-1 -58 5 -107h-62v82zM128 725h75v-84h-75v84zM299 725h75v-84h-75v84z" />
    <glyph glyph-name="aring" unicode="&#xe5;" horiz-adv-x="500" 
d="M366 257h-18q-41 0 -82 -2q-43 -4 -78 -17q-35 -12 -56 -37q-23 -25 -23 -67q0 -49 32 -70q30 -22 74 -22q55 0 87 22q31 21 45 50q15 31 17 61q2 31 2 51v31zM372 82h-2q-22 -45 -67 -69t-95 -25q-53 1 -86 17q-34 15 -52 38q-32 50 -30 89q0 64 31 101q30 37 77 53
q47 17 102 22q54 3 104 3h12v26q3 131 -116 131q-79 1 -150 -42v61q71 33 150 35q181 2 179 -190v-225q-1 -58 5 -107h-62v82zM191 648q0 -26 18 -41q17 -18 42 -18q26 0 43 18q17 15 17 41t-17 43q-17 16 -43 16q-25 0 -42 -16q-18 -17 -18 -43zM155 648q0 42 28 68
q27 26 68 27q41 -1 69 -27q26 -26 27 -68q-1 -41 -27 -67q-28 -28 -69 -28t-68 28q-28 26 -28 67z" />
    <glyph glyph-name="ae" unicode="&#xe6;" horiz-adv-x="833" 
d="M718 291q0 70 -29 122q-31 53 -101 55q-67 -2 -106 -55q-41 -53 -41 -122h277zM749 16q-72 -27 -148 -28q-157 4 -194 103q-43 -60 -93 -82q-50 -21 -100 -21q-76 0 -121 35q-47 33 -47 101q0 61 31 95q28 34 73 50t92 20q48 2 86 2h44v27q1 66 -22 108q-12 20 -34 31
q-23 11 -59 11q-81 1 -151 -42v61q71 33 150 35q57 0 98 -19q41 -20 65 -73q28 43 72 67q43 25 93 25q107 -2 156 -75q47 -72 47 -178v-32h-346v-23q-1 -74 39 -122q38 -49 126 -50q37 0 78 13q41 11 65 25v-64zM372 237h-22q-29 0 -69 -1q-40 -3 -78 -13q-37 -10 -62 -33
q-26 -23 -26 -66q1 -40 35 -61q32 -21 71 -21q83 1 118 50q34 47 33 118v27z" />
    <glyph glyph-name="ccedilla" unicode="&#xe7;" horiz-adv-x="444" 
d="M411 442q-54 25 -109 26q-92 -1 -141 -59q-51 -59 -51 -154q0 -89 50 -149q49 -63 135 -64q59 0 115 23l6 -59q-62 -19 -131 -18h-2l-15 -42q15 3 33 3q31 0 52 -16q20 -17 21 -49q-2 -42 -37 -56q-36 -13 -73 -13q-33 1 -63 11q-30 9 -38 11l7 37q11 -7 36 -17
q25 -11 53 -12q50 0 52 37q-1 37 -38 37q-21 0 -42 -4l26 75q-109 13 -162 88q-54 75 -54 177q1 121 70 193q68 73 182 74q47 0 78 -7q16 -3 28 -6q11 -4 17 -7z" />
    <glyph glyph-name="egrave" unicode="&#xe8;" horiz-adv-x="500" 
d="M390 291q0 70 -29 122q-31 53 -101 55q-69 -2 -109 -56q-41 -54 -41 -121h280zM421 16q-72 -27 -148 -28q-125 2 -179 77q-54 73 -53 190q1 119 60 193q57 73 155 74q107 -2 156 -75q47 -72 47 -178v-32h-349q0 -83 43 -137q42 -57 125 -58q37 0 78 13q41 11 65 25v-64z
M308 567h-46l-126 144h79z" />
    <glyph glyph-name="eacute" unicode="&#xe9;" horiz-adv-x="500" 
d="M390 291q0 70 -29 122q-31 53 -101 55q-69 -2 -109 -56q-41 -54 -41 -121h280zM421 16q-72 -27 -148 -28q-125 2 -179 77q-54 73 -53 190q1 119 60 193q57 73 155 74q107 -2 156 -75q47 -72 47 -178v-32h-349q0 -83 43 -137q42 -57 125 -58q37 0 78 13q41 11 65 25v-64z
M288 711h79l-126 -144h-46z" />
    <glyph glyph-name="ecircumflex" unicode="&#xea;" horiz-adv-x="500" 
d="M390 291q0 70 -29 122q-31 53 -101 55q-69 -2 -109 -56q-41 -54 -41 -121h280zM421 16q-72 -27 -148 -28q-125 2 -179 77q-54 73 -53 190q1 119 60 193q57 73 155 74q107 -2 156 -75q47 -72 47 -178v-32h-349q0 -83 43 -137q42 -57 125 -58q37 0 78 13q41 11 65 25v-64z
M211 711h82l93 -144h-46l-88 102l-88 -102h-46z" />
    <glyph glyph-name="edieresis" unicode="&#xeb;" horiz-adv-x="500" 
d="M390 291q0 70 -29 122q-31 53 -101 55q-69 -2 -109 -56q-41 -54 -41 -121h280zM421 16q-72 -27 -148 -28q-125 2 -179 77q-54 73 -53 190q1 119 60 193q57 73 155 74q107 -2 156 -75q47 -72 47 -178v-32h-349q0 -83 43 -137q42 -57 125 -58q37 0 78 13q41 11 65 25v-64z
M129 725h75v-84h-75v84zM300 725h75v-84h-75v84z" />
    <glyph glyph-name="igrave" unicode="&#xec;" horiz-adv-x="222" 
d="M168 567h-46l-126 144h79zM79 510h63v-510h-63v510z" />
    <glyph glyph-name="iacute" unicode="&#xed;" horiz-adv-x="222" 
d="M146 711h79l-126 -144h-46zM79 510h63v-510h-63v510z" />
    <glyph glyph-name="icircumflex" unicode="&#xee;" horiz-adv-x="222" 
d="M70 711h82l93 -144h-46l-88 102l-88 -102h-46zM79 510h63v-510h-63v510z" />
    <glyph glyph-name="idieresis" unicode="&#xef;" horiz-adv-x="222" 
d="M79 510h63v-510h-63v510zM-12 725h75v-84h-75v84zM159 725h75v-84h-75v84z" />
    <glyph glyph-name="eth" unicode="&#xf0;" 
d="M182 606l91 57q-61 36 -135 51l12 48q109 -16 182 -63l107 66l30 -42l-93 -57q142 -134 140 -370q1 -305 -238 -308q-122 2 -180 82q-58 78 -58 185q0 109 58 186q58 79 180 81q96 -1 157 -79h2q-29 118 -117 188l-108 -67zM109 255q0 -91 44 -150q42 -62 125 -63
q83 1 127 63q42 59 42 150t-42 152q-44 60 -127 61q-83 -1 -125 -61q-44 -61 -44 -152z" />
    <glyph glyph-name="ntilde" unicode="&#xf1;" 
d="M79 390q0 59 -4 120h61v-91h2q9 18 21 36t30 33q19 16 47 25t67 9q94 -1 135 -56q39 -54 39 -140v-326h-63v310q0 73 -27 116q-29 41 -94 42q-84 -2 -118 -60q-18 -27 -25 -59q-8 -33 -8 -67v-282h-63v390zM142 590q8 35 27 62q20 27 54 28q31 -1 61 -12q30 -12 44 -13
q17 0 31 9q13 9 18 25h37q-9 -53 -35 -71q-27 -18 -48 -17q-35 1 -62 13q-27 11 -47 12q-19 0 -27 -9q-10 -9 -17 -27h-36z" />
    <glyph glyph-name="ograve" unicode="&#xf2;" 
d="M109 255q0 -91 44 -150q42 -62 125 -63q83 1 127 63q42 59 42 150t-42 152q-44 60 -127 61q-83 -1 -125 -61q-44 -61 -44 -152zM40 255q0 109 58 186q58 79 180 81q124 -2 182 -81q56 -77 56 -186q0 -107 -56 -185q-58 -80 -182 -82q-122 2 -180 82q-58 78 -58 185z
M339 567h-46l-126 144h79z" />
    <glyph glyph-name="oacute" unicode="&#xf3;" 
d="M109 255q0 -91 44 -150q42 -62 125 -63q83 1 127 63q42 59 42 150t-42 152q-44 60 -127 61q-83 -1 -125 -61q-44 -61 -44 -152zM40 255q0 109 58 186q58 79 180 81q124 -2 182 -81q56 -77 56 -186q0 -107 -56 -185q-58 -80 -182 -82q-122 2 -180 82q-58 78 -58 185z
M319 711h79l-126 -144h-46z" />
    <glyph glyph-name="ocircumflex" unicode="&#xf4;" 
d="M109 255q0 -91 44 -150q42 -62 125 -63q83 1 127 63q42 59 42 150t-42 152q-44 60 -127 61q-83 -1 -125 -61q-44 -61 -44 -152zM40 255q0 109 58 186q58 79 180 81q124 -2 182 -81q56 -77 56 -186q0 -107 -56 -185q-58 -80 -182 -82q-122 2 -180 82q-58 78 -58 185z
M240 711h82l93 -144h-46l-88 102l-88 -102h-46z" />
    <glyph glyph-name="otilde" unicode="&#xf5;" 
d="M109 255q0 -91 44 -150q42 -62 125 -63q83 1 127 63q42 59 42 150t-42 152q-44 60 -127 61q-83 -1 -125 -61q-44 -61 -44 -152zM40 255q0 109 58 186q58 79 180 81q124 -2 182 -81q56 -77 56 -186q0 -107 -56 -185q-58 -80 -182 -82q-122 2 -180 82q-58 78 -58 185z
M143 590q8 35 27 62q20 27 54 28q31 -1 61 -12q30 -12 44 -13q17 0 31 9q13 9 18 25h37q-9 -53 -35 -71q-27 -18 -48 -17q-35 1 -62 13q-27 11 -47 12q-19 0 -27 -9q-10 -9 -17 -27h-36z" />
    <glyph glyph-name="odieresis" unicode="&#xf6;" 
d="M109 255q0 -91 44 -150q42 -62 125 -63q83 1 127 63q42 59 42 150t-42 152q-44 60 -127 61q-83 -1 -125 -61q-44 -61 -44 -152zM40 255q0 109 58 186q58 79 180 81q124 -2 182 -81q56 -77 56 -186q0 -107 -56 -185q-58 -80 -182 -82q-122 2 -180 82q-58 78 -58 185z
M159 725h75v-84h-75v84zM330 725h75v-84h-75v84z" />
    <glyph glyph-name="divide" unicode="&#xf7;" horiz-adv-x="600" 
d="M236 57q0 28 20 46q18 17 44 18q26 0 45 -19t19 -45q0 -25 -19 -44t-45 -20q-26 1 -44 20q-20 18 -20 44zM236 450q0 28 20 46q18 17 44 18q26 0 45 -19t19 -45q0 -25 -19 -44q-19 -20 -45 -20t-44 20q-20 18 -20 44zM46 288h507v-69h-507v69z" />
    <glyph glyph-name="oslash" unicode="&#xf8;" 
d="M537 516l-73 -84q52 -74 52 -177q0 -107 -56 -185q-58 -80 -182 -82q-97 1 -154 53l-70 -81l-35 29l75 86q-55 77 -54 180q0 109 58 186q58 79 180 81q102 -1 156 -56l68 79zM166 89q43 -47 112 -47q83 1 127 63q42 59 42 150q0 72 -28 125zM393 419q-44 48 -115 49
q-83 -1 -125 -61q-44 -61 -44 -152q0 -73 30 -128z" />
    <glyph glyph-name="ugrave" unicode="&#xf9;" 
d="M477 120q-1 -58 4 -120h-61v91h-2q-7 -17 -19 -34q-12 -18 -31 -34q-19 -15 -47 -24q-28 -11 -68 -11q-93 1 -134 56q-41 54 -40 140v326h63v-310q0 -73 29 -114q28 -44 92 -44q43 0 73 18q30 17 46 44q18 28 25 60t7 64v282h63v-390zM336 567h-46l-126 144h79z" />
    <glyph glyph-name="uacute" unicode="&#xfa;" 
d="M477 120q-1 -58 4 -120h-61v91h-2q-7 -17 -19 -34q-12 -18 -31 -34q-19 -15 -47 -24q-28 -11 -68 -11q-93 1 -134 56q-41 54 -40 140v326h63v-310q0 -73 29 -114q28 -44 92 -44q43 0 73 18q30 17 46 44q18 28 25 60t7 64v282h63v-390zM316 711h79l-126 -144h-46z" />
    <glyph glyph-name="ucircumflex" unicode="&#xfb;" 
d="M477 120q-1 -58 4 -120h-61v91h-2q-7 -17 -19 -34q-12 -18 -31 -34q-19 -15 -47 -24q-28 -11 -68 -11q-93 1 -134 56q-41 54 -40 140v326h63v-310q0 -73 29 -114q28 -44 92 -44q43 0 73 18q30 17 46 44q18 28 25 60t7 64v282h63v-390zM238 711h82l93 -144h-46l-88 102
l-88 -102h-46z" />
    <glyph glyph-name="udieresis" unicode="&#xfc;" 
d="M477 120q-1 -58 4 -120h-61v91h-2q-7 -17 -19 -34q-12 -18 -31 -34q-19 -15 -47 -24q-28 -11 -68 -11q-93 1 -134 56q-41 54 -40 140v326h63v-310q0 -73 29 -114q28 -44 92 -44q43 0 73 18q30 17 46 44q18 28 25 60t7 64v282h63v-390zM157 725h75v-84h-75v84zM328 725h75
v-84h-75v84z" />
    <glyph glyph-name="yacute" unicode="&#xfd;" horiz-adv-x="444" 
d="M221 85h1l147 425h66l-204 -586q-17 -55 -47 -96q-15 -20 -36 -31q-21 -12 -48 -13q-35 0 -68 8l6 54q9 -3 20 -5q11 -3 27 -3q39 1 59 32q20 29 33 79l13 45l-181 516h69zM261 711h79l-126 -144h-46z" />
    <glyph glyph-name="thorn" unicode="&#xfe;" 
d="M438 255q0 38 -5 76q-7 38 -25 68q-16 32 -46 50q-30 19 -75 19q-42 0 -70 -19q-29 -20 -47 -52t-25 -68q-9 -38 -9 -74q-1 -73 34 -141q18 -32 47 -51q28 -21 70 -21q45 0 75 21q30 19 46 49q18 32 25 70q5 37 5 73zM73 750h63v-333h2q4 11 16 30q10 17 28 34
q19 17 47 30q28 11 68 11q112 -1 162 -75q48 -73 48 -192q0 -115 -52 -190q-53 -75 -158 -77q-116 0 -159 105h-2v-303h-63v960z" />
    <glyph glyph-name="ydieresis" unicode="&#xff;" horiz-adv-x="444" 
d="M221 85h1l147 425h66l-204 -586q-17 -55 -47 -96q-15 -20 -36 -31q-21 -12 -48 -13q-35 0 -68 8l6 54q9 -3 20 -5q11 -3 27 -3q39 1 59 32q20 29 33 79l13 45l-181 516h69zM101 725h75v-84h-75v84zM272 725h75v-84h-75v84z" />
    <glyph glyph-name="dotlessi" unicode="&#x131;" horiz-adv-x="222" 
d="M79 510h63v-510h-63v510z" />
    <glyph glyph-name="OE" unicode="&#x152;" horiz-adv-x="889" 
d="M477 638q-52 5 -127 6q-13 0 -49 -4q-16 -3 -36 -10q-20 -9 -40 -22q-40 -26 -70 -87q-14 -31 -22 -73q-10 -43 -10 -99q1 -108 32 -169q15 -31 33 -52q18 -22 37 -37q40 -26 76 -32t49 -5q75 0 127 6v578zM817 638h-271v-249h257v-60h-257v-269h283v-60h-330
q-84 -2 -168 -7q-147 3 -212 113q-66 107 -65 243q-1 138 65 244q65 109 212 112q84 -3 168 -7h318v-60z" />
    <glyph glyph-name="oe" unicode="&#x153;" horiz-adv-x="889" 
d="M105 255q0 -91 44 -150q42 -62 125 -63q48 0 79 18q31 17 49 46q33 60 32 149q1 85 -32 148q-18 30 -49 48q-31 17 -79 17q-83 -1 -125 -61q-44 -61 -44 -152zM503 237q0 -83 43 -137q42 -57 125 -58q37 0 78 13q41 11 65 25v-64q-72 -27 -148 -28q-147 2 -196 104
q-54 -101 -196 -104q-122 2 -180 82q-58 78 -58 185q0 109 58 186q58 79 180 81q134 2 192 -110q55 109 183 110q107 -2 156 -76q47 -74 47 -175v-34h-349zM783 291q0 70 -31 122q-33 53 -99 55q-72 -1 -110 -49q-40 -48 -40 -128h280z" />
    <glyph glyph-name="Scaron" unicode="&#x160;" horiz-adv-x="500" 
d="M67 89q59 -41 154 -41q67 0 112 35q44 35 45 108q-1 51 -50 86q-22 18 -51 34t-59 32q-30 17 -58 36q-29 18 -52 40q-49 43 -50 109q1 85 65 134q62 47 156 48q27 0 64 -4q37 -6 73 -19l-11 -63q-51 26 -127 26q-27 0 -53 -5q-26 -6 -49 -21q-21 -13 -35 -36
q-14 -24 -14 -58q0 -25 14 -46t36 -37q23 -17 52 -32q28 -16 58 -33q63 -30 110 -76q23 -22 37 -52q13 -30 13 -69q-2 -104 -73 -151q-70 -46 -156 -46q-102 2 -158 30zM293 738h-82l-93 144h46l88 -102l88 102h46z" />
    <glyph glyph-name="scaron" unicode="&#x161;" horiz-adv-x="389" 
d="M40 74q58 -31 133 -32q47 0 80 25q32 23 33 66q-1 45 -37 71q-36 25 -85 45q-23 11 -44 23t-40 27q-17 16 -28 37q-11 20 -11 47q1 76 52 108q49 31 114 31q22 0 57 -4q35 -6 69 -19l-6 -55q-55 23 -113 24q-49 0 -78 -18q-15 -9 -23 -25q-9 -16 -9 -42q0 -16 11 -30
q11 -13 29 -24q18 -10 41 -21q23 -10 45 -22q50 -21 87 -56t38 -97q0 -40 -16 -67q-17 -28 -43 -45q-56 -33 -119 -33q-74 0 -143 24l6 62v0zM236 567h-82l-93 144h46l88 -102l88 102h46z" />
    <glyph glyph-name="Ydieresis" unicode="&#x178;" horiz-adv-x="611" 
d="M271 296l-259 402h80l213 -341l219 341h75l-259 -402v-296h-69v296zM189 842h75v-84h-75v84zM360 842h75v-84h-75v84z" />
    <glyph glyph-name="Zcaron" unicode="&#x17d;" horiz-adv-x="500" 
d="M21 60l364 578h-355v60h428v-60l-362 -578h374v-60h-449v60zM292 738h-82l-93 144h46l88 -102l88 102h46z" />
    <glyph glyph-name="zcaron" unicode="&#x17e;" horiz-adv-x="444" 
d="M32 53l307 403h-295v54h368v-54l-307 -402h307v-54h-380v53zM263 572h-82l-93 144h46l88 -102l88 102h46z" />
    <glyph glyph-name="florin" unicode="&#x192;" 
d="M458 365h-126l-71 -363q-20 -112 -58 -165t-120 -53q-34 1 -58 10l16 53q21 -8 43 -9q55 1 79 50q24 48 36 125l67 352h-111v54h122l17 91q7 38 19 73q11 35 30 62q20 27 51 44q30 16 75 16q34 -1 64 -17l-13 -50q-26 12 -56 13q-18 0 -33 -5q-15 -7 -27 -23
q-25 -30 -43 -112l-18 -92h115v-54z" />
    <glyph glyph-name="circumflex" unicode="&#x2c6;" horiz-adv-x="222" 
d="M70 716h82l93 -144h-46l-88 102l-88 -102h-46z" />
    <glyph glyph-name="caron" unicode="&#x2c7;" horiz-adv-x="222" 
d="M152 572h-82l-93 144h46l88 -102l88 102h46z" />
    <glyph glyph-name="ring" unicode="&#x2da;" horiz-adv-x="222" 
d="M51 648q0 -26 18 -41q17 -18 42 -18q26 0 43 18q17 15 17 41t-17 43q-17 16 -43 16q-25 0 -42 -16q-18 -17 -18 -43zM15 648q0 42 28 68q27 26 68 27q41 -1 69 -27q26 -26 27 -68q-1 -41 -27 -67q-28 -28 -69 -28t-68 28q-28 26 -28 67z" />
    <glyph glyph-name="tilde" unicode="&#x2dc;" horiz-adv-x="222" 
d="M-27 595q8 35 27 62q20 27 54 28q31 -1 61 -12q30 -12 44 -13q17 0 31 9q13 9 18 25h37q-9 -53 -35 -71q-27 -18 -48 -17q-35 1 -62 13q-27 11 -47 12q-19 0 -27 -9q-10 -9 -17 -27h-36z" />
    <glyph glyph-name="endash" unicode="&#x2013;" horiz-adv-x="500" 
d="M0 296h500v-54h-500v54z" />
    <glyph glyph-name="emdash" unicode="&#x2014;" horiz-adv-x="1000" 
d="M0 296h1000v-54h-1000v54z" />
    <glyph glyph-name="quoteleft" unicode="&#x2018;" horiz-adv-x="278" 
d="M147 480h-75l77 218h57z" />
    <glyph glyph-name="quoteright" unicode="&#x2019;" horiz-adv-x="278" 
d="M131 698h75l-77 -218h-57z" />
    <glyph glyph-name="quotesinglbase" unicode="&#x201a;" horiz-adv-x="278" 
d="M131 84h75l-77 -218h-57z" />
    <glyph glyph-name="quotedblleft" unicode="&#x201c;" 
d="M374 480h-75l77 218h57zM198 480h-75l77 218h57z" />
    <glyph glyph-name="quotedblright" unicode="&#x201d;" 
d="M182 698h75l-77 -218h-57zM358 698h75l-77 -218h-57z" />
    <glyph glyph-name="quotedblbase" unicode="&#x201e;" 
d="M358 84h75l-77 -218h-57zM182 84h75l-76 -218h-58z" />
    <glyph glyph-name="dagger" unicode="&#x2020;" 
d="M246 456h-175v54h175v188h63v-188h176v-54h-176v-456h-63v456z" />
    <glyph glyph-name="daggerdbl" unicode="&#x2021;" 
d="M71 242h175v214h-175v54h175v188h63v-188h176v-54h-176v-214h176v-54h-176v-188h-63v188h-175v54z" />
    <glyph glyph-name="bullet" unicode="&#x2022;" horiz-adv-x="500" 
d="M76 349q1 74 52 124q48 50 122 51q74 -1 124 -51t51 -124q-1 -74 -51 -122q-50 -51 -124 -52q-74 1 -122 52q-51 48 -52 122z" />
    <glyph glyph-name="ellipsis" unicode="&#x2026;" horiz-adv-x="1000" 
d="M793 84h81v-84h-81v84zM460 84h81v-84h-81v84zM127 84h81v-84h-81v84z" />
    <glyph glyph-name="perthousand" unicode="&#x2030;" horiz-adv-x="1000" 
d="M521 720h58l-413 -742h-58zM757 170q0 -18 2 -40q1 -23 7 -43q7 -20 22 -32q13 -14 38 -14q27 0 41 14q15 12 20 32q9 42 8 83q0 20 -1 43q-1 21 -7 41q-5 20 -20 33q-14 12 -41 12q-25 0 -38 -12q-15 -13 -22 -33q-10 -43 -9 -84zM694 170q0 33 6 65q5 30 18 56
q15 26 41 41q25 15 67 15t69 -15q26 -15 39 -41q15 -26 20 -56q4 -32 4 -65q0 -32 -4 -62q-5 -32 -20 -58q-13 -26 -39 -41q-27 -15 -69 -16q-42 1 -67 16q-26 15 -41 41q-13 26 -18 58q-6 30 -6 62zM443 170q0 -18 2 -40q1 -23 7 -43q7 -20 22 -32q13 -14 38 -14
q27 0 41 14q15 12 20 32q9 42 8 83q0 20 -1 43q-1 21 -7 41q-5 20 -20 33q-14 12 -41 12q-25 0 -38 -12q-15 -13 -22 -33q-10 -43 -9 -84zM380 170q0 33 6 65q5 30 18 56q15 26 41 41q25 15 67 15t69 -15q26 -15 39 -41q15 -26 20 -56q4 -32 4 -65q0 -32 -4 -62
q-5 -32 -20 -58q-13 -26 -39 -41q-27 -15 -69 -16q-42 1 -67 16q-26 15 -41 41q-13 26 -18 58q-6 30 -6 62zM105 528q0 -18 2 -40q1 -23 7 -43q7 -20 22 -32q13 -14 38 -14q27 0 41 14q15 12 20 32q9 42 8 83q0 20 -1 43q-1 21 -7 41q-5 20 -20 33q-14 12 -41 12
q-25 0 -38 -12q-15 -13 -22 -33q-10 -43 -9 -84zM42 528q0 36 7 69q6 32 20 56q27 51 105 52q79 -1 107 -52q26 -52 25 -125q1 -73 -25 -123q-15 -24 -40 -38q-27 -16 -67 -16q-78 1 -105 54q-14 26 -20 57q-7 32 -7 66z" />
    <glyph glyph-name="guilsinglleft" unicode="&#x2039;" horiz-adv-x="278" 
d="M105 269l133 -205h-59l-140 205l140 205h59z" />
    <glyph glyph-name="guilsinglright" unicode="&#x203a;" horiz-adv-x="278" 
d="M173 269l-133 205h59l140 -205l-140 -205h-59z" />
    <glyph glyph-name="Euro" unicode="&#x20ac;" 
d="M566 685l-13 -63q-50 29 -130 29q-96 0 -160.5 -57t-86.5 -152h341l-11 -48h-339q-5 -44 0 -90h321l-10 -48h-302q22 -96 86 -152t160 -56q77 0 131 27l6 -64q-52 -23 -137 -23q-126 0 -210 71.5t-108 196.5h-90l11 48h73q-4 46 0 90h-84l11 48h80q25 123 110 195.5
t209 72.5q85 0 142 -25z" />
    <glyph glyph-name="trademark" unicode="&#x2122;" horiz-adv-x="990" 
d="M478 698h102l122 -319l122 319h102v-414h-63v360h-2l-138 -360h-43l-137 360h-2v-360h-63v414zM195 650h-131v48h325v-48h-131v-366h-63v366z" />
    <glyph glyph-name="uniE300" unicode="&#xe300;" horiz-adv-x="222" 
d="M167 738h-46l-126 144h79z" />
    <glyph glyph-name="uniE301" unicode="&#xe301;" horiz-adv-x="222" 
d="M146 882h79l-126 -144h-46z" />
    <glyph glyph-name="uniE302" unicode="&#xe302;" horiz-adv-x="222" 
d="M68 882h82l93 -144h-46l-88 102l-88 -102h-46z" />
    <glyph glyph-name="uniE303" unicode="&#xe303;" horiz-adv-x="222" 
d="M150 738h-82l-93 144h46l88 -102l88 102h46z" />
    <glyph glyph-name="uniE304" unicode="&#xe304;" horiz-adv-x="222" 
d="M-29 755q8 35 27 62q20 27 54 28q31 -1 61 -12q30 -12 44 -13q17 0 31 9q13 9 18 25h37q-9 -53 -35 -71q-27 -18 -48 -17q-35 1 -62 13q-27 11 -47 12q-19 0 -27 -9q-10 -9 -17 -27h-36z" />
    <glyph glyph-name="uniE305" unicode="&#xe305;" horiz-adv-x="222" 
d="M-12 842h75v-84h-75v84zM159 842h75v-84h-75v84z" />
    <glyph glyph-name="uniE308" unicode="&#xe308;" horiz-adv-x="222" 
d="M49 816q0 -26 18 -41q17 -18 42 -18q26 0 43 18q17 15 17 41t-17 43q-17 16 -43 16q-25 0 -42 -16q-18 -17 -18 -43zM13 816q0 42 28 68q27 26 68 27q41 -1 69 -27q26 -26 27 -68q-1 -41 -27 -67q-28 -28 -69 -28t-68 28q-28 26 -28 67z" />
    </font>
</defs>
</svg>
