<?xml version="1.0" encoding="UTF-8" standalone="no"?>
<!-- Created with Inkscape (http://www.inkscape.org/) -->

<svg
   xmlns:dc="http://purl.org/dc/elements/1.1/"
   xmlns:cc="http://creativecommons.org/ns#"
   xmlns:rdf="http://www.w3.org/1999/02/22-rdf-syntax-ns#"
   xmlns:svg="http://www.w3.org/2000/svg"
   xmlns="http://www.w3.org/2000/svg"
   xmlns:sodipodi="http://sodipodi.sourceforge.net/DTD/sodipodi-0.dtd"
   xmlns:inkscape="http://www.inkscape.org/namespaces/inkscape"
   width="3333"
   height="1866"
   viewBox="0 0 881.85627 493.71249"
   version="1.1"
   id="svg3758"
   inkscape:version="0.92.3 (2405546, 2018-03-11)"
   sodipodi:docname="Logo5.svg">
  <defs
     id="defs3752" />
  <sodipodi:namedview
     id="base"
     pagecolor="#ffffff"
     bordercolor="#E64946"
     borderopacity="1.0"
     inkscape:pageopacity="0.0"
     inkscape:pageshadow="2"
     inkscape:zoom="0.24048959"
     inkscape:cx="2060.5523"
     inkscape:cy="1110.4924"
     inkscape:document-units="mm"
     inkscape:current-layer="layer1"
     showgrid="false"
     units="px"
     inkscape:window-width="1600"
     inkscape:window-height="847"
     inkscape:window-x="-8"
     inkscape:window-y="-8"
     inkscape:window-maximized="1" />
  <metadata
     id="metadata3755">
    <rdf:RDF>
      <cc:Work
         rdf:about="">
        <dc:format>image/svg+xml</dc:format>
        <dc:type
           rdf:resource="http://purl.org/dc/dcmitype/StillImage" />
        <dc:title></dc:title>
      </cc:Work>
    </rdf:RDF>
  </metadata>
  <g
     inkscape:label="Ebene 1"
     inkscape:groupmode="layer"
     id="layer1"
     transform="translate(0,196.71235)">
    <path
       style="fill:#E64946;stroke-width:0.26458332;fill-opacity:1"
       d="m 649.33644,259.11833 c -3.06662,-0.55385 -4.75665,-1.58586 -9.01681,-5.50611 -2.04227,-1.87931 -4.48712,-4.12581 -5.43301,-4.99221 -4.55387,-4.17118 -12.91849,-12.28815 -24.60625,-23.87777 -14.36185,-14.24123 -17.07356,-16.70942 -29.76562,-27.09244 -2.91042,-2.38093 -5.40774,-4.43388 -5.54964,-4.56213 -0.16602,-0.1501 -0.13925,-0.42325 0.0751,-0.7665 0.18319,-0.29334 0.26249,-0.64754 0.17621,-0.78716 -0.0941,-0.15221 -3.14235,-0.25484 -7.61574,-0.25638 -15.05138,-0.005 -32.26276,-1.4615 -53.0995,-4.49307 -4.49482,-0.65395 -10.57793,-1.46863 -15.875,-2.12601 -4.69651,-0.58288 -8.75927,-1.19994 -20.90208,-3.17468 -7.46083,-1.21333 -14.59669,-2.57948 -22.88646,-4.38161 -2.32833,-0.50615 -5.30489,-1.15252 -6.61458,-1.43639 -1.30969,-0.28385 -4.22672,-0.94674 -6.48229,-1.47307 -2.25558,-0.52634 -4.81542,-1.11922 -5.68854,-1.31752 -0.87313,-0.19831 -5.27844,-1.30257 -9.78959,-2.45393 -30.05749,-7.67149 -29.28485,-7.46181 -37.70312,-10.23192 -3.27422,-1.07741 -8.03672,-2.5736 -10.58334,-3.32486 -9.97855,-2.9437 -21.62558,-7.09144 -34.13125,-12.15482 -0.65484,-0.26514 -1.81229,-0.72684 -2.57212,-1.02606 l -1.38149,-0.54398 -1.46677,1.28357 c -3.44731,3.01665 -6.58818,4.7052 -11.38066,6.11831 -4.79986,1.41528 -6.32555,1.66203 -10.31875,1.66883 -6.92327,0.0116 -11.19566,-1.17075 -16.18186,-4.47887 -3.86096,-2.56156 -5.99147,-5.79191 -6.88129,-10.43368 -0.43577,-2.27311 -0.43296,-2.39628 0.10327,-4.56845 0.30311,-1.22778 0.87484,-2.74519 1.27053,-3.37199 0.96165,-1.52336 2.91097,-3.58158 4.293,-4.53284 0.61846,-0.42569 1.12448,-0.86066 1.12448,-0.9666 0,-0.10594 -1.20886,-0.84437 -2.68637,-1.64095 -3.19572,-1.72291 -7.06102,-5.11733 -6.75005,-5.92772 0.11536,-0.30065 0.35147,-0.42236 0.64225,-0.33107 2.09407,0.65733 7.89069,3.01458 9.17887,3.73268 4.40333,2.4547 4.80182,2.59943 6.28287,2.2818 1.0677,-0.229 1.40706,-0.21961 1.56965,0.0435 0.11406,0.1846 0.0933,0.44971 -0.0462,0.58917 -0.71956,0.71956 -0.1669,1.16115 3.91361,3.12695 5.81002,2.799 8.88537,4.13134 14.45493,6.26232 6.17043,2.36085 6.8471,2.52063 7.50848,1.77305 3.05811,-3.4567 6.81643,-13.32322 8.27744,-21.7302 0.72736,-4.18536 0.86624,-3.93475 -1.60338,-2.89319 -8.0287,3.38608 -17.83686,3.95724 -25.18534,1.46666 -3.44051,-1.16607 -5.67923,-2.45956 -8.06067,-4.65735 -3.37489,-3.11457 -5.49664,-6.684878 -6.60482,-11.114038 -0.21846,-0.87312 -0.53133,-2.06375 -0.69529,-2.64583 -0.17524,-0.62214 -0.29949,-3.23932 -0.30147,-6.350003 -0.003,-4.85576 0.0544,-5.5205 0.69786,-8.06979 0.77074,-3.053381 1.05492,-3.823311 2.63666,-7.143751 2.69951,-5.66692 4.45209,-8.04407 10.20908,-13.84729 9.08648,-9.15942 16.19012,-12.99401 29.22952,-15.77826 4.05099,-0.86499 11.20265,-1.66302 13.55627,-1.5127 7.34172,0.46889 10.96778,1.43406 15.75338,4.19316 4.55242,2.62467 6.60392,5.61443 6.60392,9.62427 0,4.83115 -2.60893,8.53252 -8.46667,12.0119 -6.6298,3.93798 -9.72122,5.0469 -14.2875,5.12514 -2.24605,0.0385 -2.94735,-0.0443 -3.66175,-0.43255 -0.83498,-0.4537 -0.85945,-0.50691 -0.44408,-0.96588 0.24177,-0.26715 1.21999,-0.85852 2.17387,-1.31414 4.58586,-2.19055 9.50822,-6.66517 10.97177,-9.97376 0.47781,-1.08012 0.50591,-1.36631 0.22767,-2.31705 -0.85122,-2.90846 -2.38165,-4.44493 -6.28462,-6.30933 -3.77661,-1.80405 -6.53955,-2.13405 -12.56363,-1.50057 -3.29912,0.34694 -6.34117,1.32261 -10.65986,3.41894 -5.89481,2.8614 -9.91483,6.01612 -14.10213,11.0667 -3.742,4.51345 -6.79963,10.26857 -7.60994,14.32357 -0.10084,0.50453 -0.28393,1.099851 -0.40688,1.322921 -0.56179,1.01917 -1.14578,5.88291 -1.14472,9.53368 0,3.965073 0.25294,5.460233 1.47034,8.731253 1.29191,3.47125 3.61014,5.995928 7.39913,8.058178 2.92991,1.59467 9.49147,2.64329 12.65065,2.02176 3.44506,-0.67776 7.24784,-2.08288 8.8873,-3.28385 1.98544,-1.45439 5.79245,-5.399538 7.06877,-7.325258 1.13602,-1.71402 2.85311,-5.11588 2.85311,-5.65253 0,-0.20653 -0.32742,-0.45569 -0.7276,-0.55369 -4.46278,-1.09281 -11.91115,-6.105373 -11.6644,-7.849873 0.12308,-0.87022 1.18502,-0.92985 4.83045,-0.27125 2.25335,0.40708 4.61422,0.56517 10.20738,0.68344 8.52318,0.18021 13.05693,0.71636 13.38964,1.5834 0.0733,0.19098 -1.42113,3.05147 -3.32092,6.356693 -1.89976,3.30523 -3.45413,6.05626 -3.45413,6.11339 0,0.22966 -1.4173,3.32737 -2.77847,6.072708 -0.79365,1.60073 -2.10961,4.5773 -2.92434,6.61459 -1.40327,3.5089 -1.85197,4.78467 -3.44307,9.78958 -2.5218,7.93247 -5.22013,14.04795 -8.08667,18.3275 -0.70856,1.05783 -1.28752,2.01033 -1.28662,2.11667 0,0.10634 1.34038,0.71871 2.97656,1.36086 1.63621,0.64211 4.99896,2.05335 7.47281,3.13605 5.16398,2.26002 6.67679,2.81964 19.31459,7.14476 8.57356,2.9342 18.59441,6.17423 23.01875,7.44262 2.69237,0.77187 22.60055,6.32703 25.4,7.0876 1.30969,0.35582 7.73906,1.8369 14.2875,3.29132 22.27696,4.94765 31.90899,6.90885 38.85737,7.91175 6.63501,0.95766 9.9586,1.49569 16.96971,2.74712 2.91042,0.51948 7.43479,1.18581 10.05417,1.48068 2.61937,0.29491 9.46547,1.18476 15.21354,1.97745 16.85557,2.32444 23.87926,3.10666 32.01458,3.56534 2.69214,0.15179 6.85933,0.41881 9.26042,0.59338 2.51505,0.18285 9.80522,0.31676 17.19792,0.31591 14.02315,-0.003 13.22546,0.0516 29.50104,-1.96916 10.51486,-1.30551 19.5489,-2.70907 23.01875,-3.57627 2.88354,-0.72067 10.2172,-2.7628 10.48525,-2.91975 0.0916,-0.0536 -2.82413,-3.04613 -6.47935,-6.65004 -3.65525,-3.60389 -8.31408,-8.22349 -10.35299,-10.26576 -6.81588,-6.82717 -21.41069,-18.93916 -29.23937,-24.26522 -1.0914,-0.74253 -3.11547,-2.19824 -4.49791,-3.23493 -4.67726,-3.50742 -10.62443,-7.16907 -14.37831,-8.8527 -1.70273,-0.76366 -2.00226,-0.81182 -5.02708,-0.8079 -4.97631,0.006 -8.9062,1.00772 -13.09082,3.33544 -10.46393,5.8207 -16.7163,17.07089 -16.7163,30.0785 0,4.74363 0.46382,6.39749 2.06476,7.3625 1.23161,0.7424 14.67718,9.68926 16.98525,11.30218 5.77445,4.0354 10.05416,7.26438 10.05416,7.58574 0,0.68337 -1.1145,1.45023 -2.1077,1.45023 -1.08159,0 -0.81713,0.16386 -6.62355,-4.10384 -7.0993,-5.21798 -15.93522,-11.19992 -19.93701,-13.49738 -1.80655,-1.03716 -2.9803,-2.341 -3.53293,-3.92459 -0.68752,-1.97006 -0.68501,-10.27935 0.004,-13.1346 1.4206,-5.88714 3.59724,-11.23006 6.16839,-15.14134 1.71143,-2.60345 6.57344,-7.40024 9.36006,-9.23451 5.81607,-3.82836 11.19819,-5.58149 17.07739,-5.56268 3.67089,0.0116 4.60545,0.17277 6.49769,1.1194 l 1.48239,0.74157 0.30726,-2.03467 c 0.64214,-4.25222 1.31606,-7.88292 1.59633,-8.60031 0.16008,-0.40965 0.2906,-0.82637 0.29007,-0.92604 0,-0.0997 -1.17301,-0.18121 -2.60554,-0.18121 -2.79924,0 -3.57222,-0.28911 -3.42556,-1.28125 0.0627,-0.42383 0.62407,-0.70982 2.72476,-1.388 3.69305,-1.19227 8.91651,-3.49001 12.90984,-5.67894 1.86169,-1.02047 3.48432,-1.79393 3.60585,-1.71881 0.12155,0.0751 0.42611,0.5688 0.67677,1.09704 0.64056,1.3499 0.35634,3.42942 -0.66058,4.83325 -1.22889,1.69643 -5.0282,3.26181 -8.85897,3.65011 -1.95252,0.19788 -2.59455,0.47353 -1.73699,0.74573 0.4962,0.15748 0.57637,0.332 0.4703,1.0237 -0.14449,0.9421 -0.80748,4.39994 -1.2252,6.39008 -0.15272,0.72761 -0.45882,2.27542 -0.6802,3.43959 -0.47622,2.50431 -0.94731,1.92982 4.23077,5.15937 6.2425,3.89345 17.59125,12.30606 25.05078,18.56973 2.08367,1.74958 4.50284,3.77965 5.37596,4.5112 2.48806,2.0847 11.18473,10.32338 19.57311,18.54229 7.58103,7.42794 7.66318,7.52004 7.3393,8.23084 -0.29353,0.64424 -0.27916,0.70379 0.13838,0.57396 0.25622,-0.0797 3.32338,-0.98713 6.81588,-2.0166 5.42462,-1.59895 6.9669,-2.17649 10.58333,-3.96301 7.83193,-3.86897 12.29442,-6.84985 17.37863,-11.60862 1.74646,-1.6347 2.24486,-2.31732 3.53862,-4.84661 l 1.50587,-2.94391 -0.0225,-2.75151 c -0.019,-2.30478 -0.12044,-2.94743 -0.62523,-3.95822 -0.33147,-0.66368 -0.75925,-1.2668 -0.95063,-1.34022 -0.1914,-0.0735 -1.32384,0.11277 -2.51655,0.41384 -14.1196,3.56391 -27.45672,3.0507 -40.00773,-1.53953 -6.54696,-2.3944 -9.19345,-4.13864 -10.55979,-6.95979 -2.98529,-6.16394 1.50996,-10.26329 12.41563,-11.32215 10.19908,-0.99026 23.39893,1.74937 34.65462,7.19253 2.42181,1.17118 7.67932,4.47284 9.68701,6.08336 l 0.6854,0.54978 2.62189,-0.9796 c 4.904,-1.83226 9.48798,-4.36679 15.97102,-8.83055 6.3559,-4.3762 12.3608,-11.57279 15.16546,-18.17499 2.65835,-6.25782 3.77934,-11.439818 3.34315,-15.454288 -0.48028,-4.42021 -1.4564,-8.023093 -2.99786,-11.064983 -0.62749,-1.2383 -3.26936,-5.29643 -4.62643,-7.106581 -0.52948,-0.70623 -0.57949,-0.91736 -0.29781,-1.25677 1.11021,-1.33773 4.33522,0.98774 7.05746,5.088971 1.38076,2.08021 2.5667,4.6136 3.70465,7.913903 l 0.9865,2.86107 0.0172,4.8948 c 0.018,5.106188 -0.30519,7.375278 -1.73365,12.170828 -2.8144,9.44822 -9.77651,18.56713 -19.01886,24.91068 -3.88178,2.66427 -10.58593,6.04835 -15.09249,7.61831 -2.79514,0.97371 -2.73185,0.85772 -1.97017,3.61124 0.81785,2.95651 0.84714,5.35345 0.098,8.0283 -1.6089,5.74514 -5.73138,10.90446 -13.22438,16.55043 -5.96347,4.49347 -10.18071,6.64861 -19.42039,9.92439 -4.92712,1.74683 -6.83241,2.38165 -7.14819,2.38165 -0.81362,0 -0.5592,0.54073 1.00973,2.1459 1.85706,1.9 4.54443,4.85902 9.70537,10.68639 1.93317,2.18281 4.0718,4.56406 4.75252,5.29167 0.68072,0.7276 3.6018,3.88276 6.49131,7.01145 2.88952,3.1287 5.82007,6.22433 6.51233,6.87917 1.81766,1.71942 2.35497,2.75307 2.35616,4.53255 0.003,4.10398 -4.97919,12.18965 -11.1466,18.09102 -3.36553,3.22032 -6.58961,5.12146 -9.46515,5.58128 -1.57067,0.25117 -3.48261,-0.81836 -6.3032,-3.52597 -1.27629,-1.22515 -2.59289,-2.41417 -2.92579,-2.64226 -0.76935,-0.52711 -0.85841,-0.4163 -2.80985,3.49567 -1.8429,3.69446 -2.27155,5.03243 -2.45779,7.67152 -0.26302,3.72686 0.63508,6.09004 2.89245,7.611 4.21275,2.8384 12.98816,1.56252 20.04608,-2.91454 6.37479,-4.04374 18.58325,-16.38679 26.10308,-26.39089 2.91481,-3.87776 14.99558,-21.73354 19.5504,-28.89613 0.57502,-0.90424 1.59647,-2.51158 2.26989,-3.57187 0.67342,-1.06032 4.05522,-6.45221 7.51509,-11.982 3.45991,-5.5298 8.98753,-14.28089 12.28366,-19.44688 3.2961,-5.16599 6.5818,-10.31578 7.30154,-11.44399 0.71975,-1.12821 1.94133,-3.03321 2.71465,-4.23334 1.13224,-1.75712 1.38142,-2.34201 1.27966,-3.00347 -0.0695,-0.45177 -1.15885,-2.6417 -2.42078,-4.86653 -1.2619,-2.22483 -3.06226,-5.54612 -4.00079,-7.38066 -0.93853,-1.83457 -1.9966,-3.87133 -2.35124,-4.52617 -0.35468,-0.65485 -0.64818,-1.51805 -0.65228,-1.91823 -0.006,-0.60148 0.10705,-0.72761 0.65323,-0.72761 0.88196,0 2.40236,1.40878 4.85428,4.49792 2.22332,2.80112 7.78547,8.46878 8.3053,8.46286 0.1842,-0.003 0.67733,-0.62717 1.09582,-1.38907 1.02643,-1.86867 6.74201,-10.39974 8.72768,-13.02692 5.84327,-7.73099 10.64906,-13.23797 16.73987,-19.18229 4.73597,-4.622028 7.47697,-6.985208 12.26844,-10.577248 7.42482,-5.566173 10.37884,-7.057813 16.09349,-8.126433 l 1.14451,-0.21403 -2.09275,-2.52338 c -5.21512,-6.288281 -11.29001,-12.321621 -18.58483,-18.457761 -2.11005,-1.77489 -4.96755,-4.19271 -6.35,-5.37293 -9.9086,-8.45914 -25.04816,-19.80726 -31.7753,-23.817731 -0.64092,-0.382096 -3.24892,-2.056942 -5.79554,-3.721878 C 732.831,24.329842 729.45311,22.396923 718.75945,16.964258 705.82643,10.393947 698.80928,7.4733519 679.73341,0.7213149 671.50775,-2.1902184 669.6,-2.7292494 667.43028,-2.7549324 c -2.23676,-0.02647 -3.21029,0.317482 -7.27604,2.5707373 -7.3801,4.09008 -14.09941,9.621909 -25.53229,21.0200401 -9.36551,9.337042 -13.60797,14.068536 -18.97449,21.161643 -1.24211,1.64173 -2.47377,3.10024 -2.73706,3.24114 -0.68699,0.36767 -2.1831,0.31562 -2.74534,-0.0955 -0.63265,-0.46261 -0.44673,-0.80083 2.52603,-4.59518 7.16018,-9.139058 17.09412,-19.90552 25.10586,-27.209845 9.02967,-8.2323761 11.06347,-9.8966031 16.62142,-13.6009571 4.36975,-2.9124443 5.54677,-3.5624243 8.83364,-4.8780863 3.05927,-1.224563 4.25045,-1.383062 6.19329,-0.824071 5.62136,1.617406 22.3257,7.3260713 24.94862,8.5261453 0.81349,0.372197 3.38407,1.439018 5.7124,2.370711 2.32834,0.931696 4.59053,1.854444 5.02709,2.050553 0.43656,0.196106 1.38906,0.616029 2.11667,0.933159 1.47764,0.644038 18.73363,9.2772121 21.82812,10.9206081 5.31201,2.821065 7.88964,4.39274 19.97604,12.180173 10.67353,6.87709 13.74116,9.09051 24.60625,17.75429 11.44403,9.12544 15.83664,12.98723 23.88595,20.99949 6.64086,6.61027 9.00647,9.170721 12.28381,13.295521 2.27992,2.86944 2.81787,3.83855 3.67189,6.614593 0.84685,2.75286 0.85071,7.67672 0.009,11.620308 -1.86454,8.73644 -5.33868,17.26978 -9.74732,23.94178 -2.05066,3.1034 -2.89055,3.97872 -6.29087,6.55598 -2.41829,1.83292 -4.13491,2.68819 -6.52754,3.25226 -3.55388,0.8378 -5.2797,0.34014 -7.92212,-2.28442 -2.78503,-2.76622 -7.34396,-6.92203 -13.25198,-12.08024 l -3.09538,-2.70253 -1.66712,2.09404 c -3.58047,4.49744 -7.19143,9.70542 -11.45669,16.52366 -1.05111,1.68026 -1.87558,2.69393 -2.44012,3.00011 -0.83207,0.45124 -0.88313,0.44683 -2.11667,-0.18307 -0.69522,-0.35499 -1.35001,-0.68678 -1.45508,-0.73729 -0.10506,-0.0505 0.31041,0.8559 0.92327,2.01428 1.34464,2.5414 1.52926,1.95506 -2.62282,8.32964 -1.57956,2.42506 -3.33938,5.15577 -3.91072,6.06827 -0.57135,0.91249 -1.64984,2.61159 -2.39665,3.77576 -0.74682,1.16417 -1.94623,3.03943 -2.66536,4.16724 -0.71914,1.12781 -2.14096,3.35161 -3.1596,4.94178 -1.01865,1.59015 -2.28513,3.58442 -2.81443,4.43169 -1.97739,3.16548 -6.13018,9.75421 -7.32523,11.62204 -0.68059,1.06376 -2.07087,3.25443 -3.08951,4.86817 -3.64194,5.76951 -6.15979,9.67216 -9.70531,15.04315 -1.28329,1.94398 -2.33323,3.58831 -2.33323,3.65408 0,0.15357 -6.59813,9.98554 -9.02542,13.44893 -1.01989,1.45521 -2.05134,2.94349 -2.29211,3.30729 -2.82228,4.26414 -10.18117,12.99681 -15.40436,18.28012 -2.02271,2.046 -7.07771,6.662 -8.73993,7.98089 -5.00835,3.97399 -8.22206,5.7816 -13.22908,7.44101 -1.52382,0.50504 -3.84212,1.04598 -5.15181,1.20216 -2.8075,0.33475 -2.61006,0.33996 -5.26164,-0.13896 z m -9.42273,-11.96245 c 0,-3.79184 3.21833,-10.98147 7.45289,-16.64935 6.37299,-8.53014 13.98103,-14.2067 21.78325,-16.25304 l 2.20382,-0.57801 -2.82155,-3.18817 c -1.55186,-1.75348 -4.43259,-4.85765 -6.40167,-6.89817 -1.96905,-2.04049 -4.23079,-4.48389 -5.02605,-5.42978 -0.79526,-0.94588 -3.11325,-3.56123 -5.15112,-5.81191 -4.42984,-4.89241 -4.12046,-4.55581 -6.04912,-6.58164 -1.32527,-1.39206 -1.52482,-1.72935 -1.37538,-2.32471 0.15878,-0.6326 0.11898,-0.67922 -0.43421,-0.50859 -3.71488,1.14586 -10.88866,2.88949 -15.82253,3.84575 -6.84662,1.32699 -9.59808,1.79623 -12.43542,2.12077 -1.38245,0.15814 -3.10885,0.39867 -3.83646,0.53456 -1.2048,0.22498 -4.71209,0.57121 -13.49375,1.33205 -1.74625,0.15129 -7.04119,0.35872 -11.76657,0.46095 l -8.59158,0.1859 3.56449,2.90235 c 4.94189,4.02391 9.84639,8.17647 11.89377,10.07025 0.94869,0.87754 2.79646,2.54164 4.10614,3.69798 3.56325,3.14605 7.49023,6.93486 14.68438,14.16764 10.46834,10.52457 26.69056,25.9149 27.31569,25.9149 0.11054,0 0.20098,-0.45439 0.20098,-1.00973 z m 19.65584,-8.81208 c 5.17022,-2.60567 12.12993,-10.65268 14.89657,-17.22387 0.68741,-1.63271 0.82955,-3.34777 0.31967,-3.85765 -0.70522,-0.70522 -5.03523,-0.13036 -7.88458,1.0468 -2.8052,1.1589 -9.26042,5.20187 -9.26042,5.79988 0,0.11501 0.95245,1.08018 2.11653,2.14484 1.16409,1.06468 2.11659,2.12336 2.11667,2.35262 8e-5,0.22927 -0.66786,1.29858 -1.48429,2.37623 -2.20493,2.91039 -3.64622,6.317 -3.18317,7.52369 0.21315,0.55541 1.05309,0.49763 2.36302,-0.16254 z m -5.36834,-2.97431 c 0,-0.18121 0.7739,-1.68577 1.71979,-3.34346 0.94588,-1.65769 1.7122,-3.07996 1.70291,-3.16063 -0.0254,-0.22125 -2.3686,-2.13104 -2.61459,-2.13104 -0.23817,0 -3.20183,3.28195 -4.36316,4.83172 l -0.74578,0.99528 1.15821,1.01524 c 2.38038,2.0865 2.74738,2.36664 2.94259,2.24599 0.11001,-0.068 0.20003,-0.27189 0.20003,-0.4531 z M 318.85815,144.70088 c 1.15517,-0.298 3.29097,-1.11908 4.74618,-1.82461 2.53415,-1.22868 5.95312,-3.48531 5.95312,-3.92925 0,-0.11623 -1.99429,-1.09099 -4.43177,-2.16609 -7.28755,-3.21437 -10.55992,-4.82254 -15.00124,-7.37219 -2.32074,-1.33226 -4.35562,-2.42229 -4.52202,-2.42229 -0.54282,0 -1.72614,3.47363 -1.95141,5.72833 -0.40309,4.03432 0.37696,6.37821 2.95987,8.89405 1.50503,1.46595 2.18326,1.85039 4.77475,2.70656 3.25363,1.07489 4.54231,1.14138 7.47252,0.38549 z m 347.94439,-2.90351 c 3.25131,-0.55583 9.14609,-1.82065 9.3354,-2.00302 0.52401,-0.50483 -6.45681,-5.18303 -9.95468,-6.67118 -1.73249,-0.73708 -12.23888,-3.36092 -14.89247,-3.71922 -3.40527,-0.45977 -8.7562,-0.62257 -11.1125,-0.33806 -4.8782,0.58896 -9.02658,2.33899 -9.38215,3.95795 -0.67297,3.06391 4.49299,5.95763 14.27694,7.99725 4.67596,0.97477 7.55423,1.25608 13.13672,1.28394 4.36933,0.0217 6.0906,-0.0799 8.59274,-0.50766 z m 126.07833,-10.80799 c 2.14545,-1.03772 4.90016,-3.12015 6.15794,-4.65508 1.35974,-1.65941 3.86088,-5.68907 5.27619,-8.50069 3.87191,-7.69181 6.86784,-18.749928 6.44472,-23.787788 -0.19003,-2.2624 -1.15539,-4.97168 -2.09045,-5.86679 -0.74782,-0.715853 -0.89053,-0.747683 -3.34285,-0.745203 -3.34881,0.003 -5.17245,0.630373 -8.91003,3.063323 -2.89264,1.88294 -8.98954,6.41501 -9.2951,6.90946 -0.0917,0.1483 1.63443,2.07357 3.83579,4.278368 2.76966,2.774 4.00246,4.19079 4.00246,4.59983 0,0.36095 -0.68744,1.33843 -1.76554,2.51045 -2.27928,2.4778 -3.93216,4.72649 -4.70656,6.40308 -2.42692,5.25433 -2.88134,6.97539 -2.90288,10.99436 -0.0198,3.69125 0.10033,4.36343 0.94088,5.26566 0.54124,0.58094 0.72613,0.61505 2.62793,0.48471 1.54498,-0.10591 2.45737,-0.33935 3.7275,-0.95369 z m -10.79913,-5.92116 c 0.50189,-5.85507 3.83934,-13.34082 7.57359,-16.98723 0.58899,-0.57512 1.07088,-1.143 1.07088,-1.26196 0,-0.20907 -4.12337,-4.86119 -5.64023,-6.36344 l -0.74544,-0.738258 -0.84206,0.694078 c -3.67477,3.02892 -14.75849,14.40042 -14.72031,15.10252 0.007,0.12525 1.0486,1.08839 2.31511,2.14029 1.2665,1.05193 4.14819,3.57625 6.40376,5.60962 2.25557,2.03338 4.17288,3.70279 4.26067,3.70983 0.0878,0.007 0.2336,-0.85042 0.32403,-1.90545 z M 172.92412,245.10653 c 0,-0.0818 0.29306,-0.76817 0.65125,-1.52532 1.92749,-4.07438 2.77434,-7.89287 2.96977,-13.39081 l 0.15459,-4.34916 -1.76887,1.46822 c -6.93606,5.75723 -18.96929,7.04813 -29.78799,3.19561 -3.40561,-1.21274 -6.51073,-2.87419 -7.89711,-4.22552 -1.05779,-1.03106 -1.32861,-1.48514 -1.46453,-2.4556 -0.29284,-2.09095 -1.21068,-13.40882 -1.63049,-20.10572 -0.22341,-3.56383 -0.49818,-6.57169 -0.61061,-6.68411 -0.11243,-0.11242 -1.56616,-0.32449 -3.23052,-0.47125 -1.66437,-0.14677 -3.91909,-0.43529 -5.01049,-0.64119 -1.09141,-0.20587 -2.81782,-0.45239 -3.83646,-0.5478 -8.97804,-0.84092 -19.35355,-4.90159 -26.722922,-10.45852 -5.631624,-4.24659 -11.41205,-10.91473 -14.118473,-16.28667 -2.325026,-4.61494 -3.550121,-9.11296 -4.027438,-14.78703 -0.661156,-7.85942 1.009896,-16.05881 5.4462,-26.72292 3.237124,-7.7815 8.907917,-16.33582 15.295041,-23.07238 5.843152,-6.162828 15.916322,-13.409158 22.672382,-16.309821 0.50932,-0.21867 1.87854,-0.83338 3.04271,-1.36604 5.84926,-2.67621 12.76001,-4.34374 19.75319,-4.76636 l 3.08444,-0.18643 0.45399,-1.22655 c 0.5822,-1.57298 4.54774,-9.749691 5.15015,-10.619301 3.5569,-5.13462 9.3028,-21.19626 10.16544,-28.41569 0.14527,-1.21572 0.0992,-1.34991 -0.74419,-2.16903 -1.12827,-1.09576 -2.31921,-3.17059 -3.09879,-5.39861 -0.51736,-1.478601 -0.60275,-2.257836 -0.6089,-5.55625 -0.006,-3.320085 0.0737,-4.067937 0.59392,-5.55625 0.3306,-0.945886 0.83751,-2.048746 1.12646,-2.450801 l 0.52537,-0.731007 -0.95899,-2.047118 c -2.70695,-5.778408 -4.15103,-8.3990661 -6.08509,-11.0429501 -0.74516,-1.018645 -2.12652,-3.16177 -3.06969,-4.762499 -2.42073,-4.1084243 -4.81817,-7.7975043 -5.07012,-7.8016693 -0.11773,-0.0018 -1.1893,0.466231 -2.38125,1.040395 -5.29153,2.548922 -12.49743,4.1009863 -16.05782,3.4586573 -3.666,-0.6613843 -5.02245,-1.8930593 -5.64099,-5.1221113 -0.44283,-2.311744 -0.35161,-11.3067256 0.14934,-14.7263136 0.84418,-5.762519 2.71874,-12.185866 4.98882,-17.094604 0.27656,-0.598022 0.50283,-1.167133 0.50283,-1.26469 0,-0.09756 0.84021,-1.902296 1.86713,-4.01053 l 1.86714,-3.833154 -2.05457,-3.104239 c -1.13001,-1.707333 -2.36574,-3.520959 -2.74607,-4.030282 -3.25289,-4.356166 -4.36,-5.783553 -6.38323,-8.229835 -2.82532,-3.416099 -13.31311,-13.732338 -17.14506,-16.864616 -4.958732,-4.053324 -8.488123,-7.23007 -8.884702,-7.996973 -0.608435,-1.176583 -0.519112,-6.118931 0.159057,-8.800951 1.132465,-4.478647 2.139964,-6.787227 4.868921,-11.156587 4.188794,-6.70671 7.758884,-10.85391 13.564814,-15.75758 2.40489,-2.03116 8.48626,-6.33512 8.95134,-6.33512 0.10092,0 0.74227,-0.40144 1.42523,-0.89209 1.39882,-1.00496 8.94189,-4.74785 12.41284,-6.15929 3.12039,-1.26888 8.46297,-2.92484 10.97224,-3.40089 1.14071,-0.21641 2.16587,-0.45024 2.27812,-0.51961 0.11225,-0.0694 2.27456,-0.45156 4.80513,-0.8493 3.87754,-0.60945 5.45396,-0.72501 10.02501,-0.73485 4.83807,-0.0104 5.68118,0.0547 7.80521,0.60272 4.80096,1.23872 7.53189,2.54689 8.49854,4.07096 0.34228,0.53965 0.93644,2.147 1.32036,3.57187 0.96213,3.57091 0.92947,3.49408 1.15781,2.72298 0.17485,-0.59046 1.22608,-3.22307 1.84889,-4.63021 0.30467,-0.68834 1.3276,-3.16201 2.40707,-5.82083 0.47265,-1.16417 1.31595,-3.22665 1.87399,-4.58329 0.55804,-1.35664 1.36634,-3.5593 1.79621,-4.89479 1.28309,-3.98617 2.61719,-8.45559 2.79796,-9.37348 0.0931,-0.47294 0.24917,-0.85863 0.34675,-0.85708 0.0976,0.002 0.64733,1.46007 1.22167,3.24115 1.81781,5.63719 3.01025,8.65008 5.15124,13.01542 1.1453,2.3352 2.76355,5.67457 3.5961,7.42082 2.70954,5.68316 3.42106,7.07536 7.36965,14.41979 0.66501,1.23692 3.2468,6.35661 5.73731,11.37708 2.49051,5.02046 4.62069,9.30671 4.73374,9.525 0.27105,0.52334 1.28138,0.7239 3.85312,0.76484 2.47491,0.0394 7.04959,1.01695 9.12813,1.95054 1.74962,0.785866 3.33913,2.024196 4.08325,3.181116 0.47293,0.735292 0.54693,1.267385 0.54675,3.931681 -1.7e-4,2.562564 -0.0781,3.167401 -0.46302,3.592709 -0.25455,0.281273 -0.46686,0.621093 -0.47179,0.755155 -0.005,0.134062 -0.23902,0.72 -0.52019,1.302083 -0.28117,0.582084 -0.51525,1.198658 -0.52019,1.370163 -0.005,0.171509 -0.1636,0.469165 -0.35259,0.661459 -0.18898,0.192296 -0.73159,1.004472 -1.2058,1.804836 -1.53134,2.584575 -2.58331,4.212784 -3.0675,4.747811 -0.31961,0.35316 -0.42585,0.76264 -0.3272,1.261022 0.14325,0.723652 4.06113,12.269817 4.60473,13.570334 0.15206,0.363802 0.59552,1.435364 0.98546,2.38125 0.38994,0.945885 0.99354,2.335736 1.34133,3.08856 0.91344,1.977187 6.3327,11.293716 7.74546,13.315606 1.26261,1.807004 4.95373,6.452849 6.20123,7.805209 0.74355,0.806055 0.9116,1.314616 0.51533,1.559525 -0.61792,0.381897 -5.44516,1.483183 -6.50119,1.483183 -0.66934,0 -1.21699,0.03985 -1.21699,0.08856 0,0.04871 0.41672,0.944825 0.92604,1.991371 0.50933,1.046544 0.92604,1.966565 0.92604,2.04449 0,0.07793 0.28138,0.759386 0.62528,1.514361 1.13887,2.500162 1.66655,3.736904 2.27907,5.341427 0.80552,2.110126 0.87749,2.286077 2.00202,4.894792 1.44512,3.352429 3.71533,9.1936776 4.21606,10.8479166 0.24226,0.800364 0.79321,2.52677 1.22433,3.836458 1.25237,3.8045763 1.35072,4.3625583 1.22407,6.9453123 -0.066,1.346068 -0.0929,2.447396 -0.0597,2.447396 0.0331,0 0.37807,-0.480242 0.76651,-1.067202 0.38843,-0.586962 1.1164,-1.262798 1.61771,-1.501854 0.79659,-0.379871 1.1366,-0.393169 2.69773,-0.105519 5.89374,1.085964 11.56607,7.3506121 13.20222,14.5808251 1.08442,4.792094 1.1207,8.852175 0.12018,13.45455 -0.50454,2.320835 -1.46757,5.397082 -1.8759,5.992322 -0.0998,0.14552 -0.31115,0.65011 -0.46961,1.12131 -0.50347,1.49719 -2.59606,4.46039 -3.57875,5.06774 -0.70205,0.43388 -1.08323,0.95563 -1.48736,2.03575 -0.29887,0.79879 -0.5434,1.55464 -0.5434,1.67967 0,0.12503 0.98227,0.36011 2.18281,0.52238 6.51532,0.88067 9.24259,1.13109 13.5599,1.2451 2.61938,0.0692 5.13593,0.18281 5.59237,0.25254 1.18641,0.18123 3.09173,1.96507 3.76129,3.52148 2.28483,5.31124 0.3978,15.67149 -4.11943,22.61657 -1.65476,2.544121 -4.09557,4.933101 -5.97448,5.847611 -1.38295,0.6731 -1.72162,0.73205 -3.43958,0.5987 -1.04807,-0.0814 -3.03668,-0.50602 -4.41913,-0.94369 -5.00131,-1.58337 -11.37708,-3.387201 -11.37708,-3.218791 0,0.170571 5.03666,7.573701 8.1021,11.908844 0.87466,1.23693 2.59871,3.67771 3.83127,5.42396 1.23256,1.74625 3.99285,5.36009 6.13402,8.030768 2.14117,2.67067 3.89303,4.96263 3.89303,5.09323 0,0.45508 -0.59886,0.22494 -4.48877,-1.72506 -4.48077,-2.24618 -6.69986,-3.54727 -11.46492,-6.722028 -3.22067,-2.1458 -3.47231,-2.37964 -5.15401,-4.78936 -4.19858,-6.01606 -9.32459,-13.959463 -12.36252,-19.157264 l -1.85251,-3.16958 -4.89437,-2.18643 c -2.6919,-1.20256 -6.68001,-2.74018 -8.86246,-3.41694 -5.83357,-1.80896 -12.3873,-3.72031 -14.94961,-4.35996 -5.12116,-1.27844 -7.00681,-2.25751 -10.14081,-5.2653 -1.40859,-1.35186 -5.31131,-6.1881 -6.91423,-8.56809 -0.56358,-0.83678 -1.07951,-1.46659 -1.14653,-1.39957 -0.067,0.067 0.13102,1.16837 0.44008,2.44746 0.99287,4.10908 1.88176,10.15992 2.05913,14.01695 0.0949,2.0646 0.24377,3.85339 0.33072,3.97508 0.087,0.1217 2.24169,1.77884 4.7883,3.68257 2.54662,1.90373 5.79476,4.49889 7.21811,5.76704 2.8267,2.518471 7.10581,7.188921 8.50225,9.279821 3.52512,5.278203 5.82952,12.463143 6.15875,19.202551 0.12803,2.62083 0.0937,2.88327 -0.5408,4.13541 -0.8023,1.5833 -2.5536,3.05893 -5.58386,4.70504 -2.58892,1.40634 -4.57877,2.20331 -6.33048,2.53552 -1.96489,0.37264 -2.18439,0.22374 -2.39339,-1.62361 -0.22696,-2.0061 -2.53726,-9.02065 -3.81399,-11.58013 -1.40183,-2.81024 -3.77997,-5.822728 -7.44667,-9.432998 -2.54671,-2.50753 -3.26761,-3.08612 -3.4466,-2.76627 -0.12449,0.22244 -0.66664,1.75546 -1.20478,3.40667 -0.53814,1.65124 -1.14048,3.31279 -1.33852,3.69231 -0.19805,0.37955 -0.36082,0.79116 -0.36172,0.91469 -0.004,0.60204 -2.97965,6.716418 -4.92261,10.116238 l -1.6759,2.93254 0.15362,5.26954 c 0.20645,7.08174 -0.36378,11.47485 -2.16749,16.6986 -1.40391,4.06585 -3.05498,7.13507 -5.61918,10.44567 l -1.16319,1.50175 4.61052,4.58367 c 6.81446,6.77473 11.96353,12.72587 18.04766,20.85895 2.22293,2.97156 6.46589,9.20721 8.99922,13.22573 2.07947,3.29859 3.02207,4.87812 5.42933,9.09825 5.79703,10.16262 10.5446,20.20718 14.31937,30.2959 1.23004,3.28748 1.27131,4.20008 0.27513,6.08333 -1.01675,1.92215 -2.76996,3.62516 -5.31732,5.16512 -7.32274,4.42677 -17.23116,5.82424 -25.34188,3.57417 -2.35361,-0.65294 -3.85197,-1.3014 -6.44095,-2.78749 -3.26117,-1.87195 -4.124,-3.22942 -6.44608,-10.1414 -0.94339,-2.80815 -1.76073,-5.15117 -1.81631,-5.20676 -0.0556,-0.0556 -0.24965,0.56295 -0.43127,1.37454 -0.85499,3.82048 -4.01287,9.67925 -7.62043,14.13809 -1.96079,2.42347 -5.8337,6.16474 -8.29884,8.01677 -0.86004,0.64614 -1.82711,0.94559 -1.82711,0.56581 z m -36.13939,-105.8831 c 1.35136,-5.00624 2.53381,-7.48639 4.35268,-9.12964 0.57444,-0.51898 2.18399,-1.61424 3.57677,-2.43395 3.20166,-1.88426 3.87131,-2.45417 4.60139,-3.91602 0.48577,-0.97266 0.5898,-1.62438 0.5898,-3.69506 0,-2.25169 -0.0864,-2.70436 -0.82779,-4.33666 -2.17662,-4.79221 -3.99538,-10.54108 -4.77345,-15.08826 -0.33271,-1.944418 -0.70762,-3.535308 -0.83314,-3.535308 -0.12551,0 -1.56961,1.33946 -3.20911,2.976568 -2.86422,2.86004 -4.61047,5.17779 -6.03018,8.00364 -1.91221,3.80614 -3.64256,11.10223 -3.63946,15.34583 0.003,4.06718 1.28427,9.33818 3.19872,13.15908 0.77254,1.54184 2.35735,4.17113 2.51415,4.17113 0.0379,0 0.25376,-0.68461 0.47962,-1.52135 z m 466.48979,-15.13832 c -0.0869,-0.14052 0.10086,-0.7656 0.41712,-1.38906 0.81124,-1.5992 10.98423,-19.36438 12.05026,-21.04345 0.73102,-1.15142 0.80325,-1.38737 0.42217,-1.37922 -1.4423,0.0309 -11.64185,1.7309 -12.62293,2.10391 -1.09998,0.4182 -1.72743,0.33374 -1.72743,-0.23254 0,-0.33737 0.40883,-0.69186 1.25677,-1.08974 0.69122,-0.32436 2.32833,-1.217748 3.63802,-1.985298 1.30968,-0.76759 3.57187,-2.01425 5.02708,-2.77035 3.62778,-1.88495 3.64665,-1.91074 1.93508,-2.6434 -0.77324,-0.33099 -1.88216,-0.80952 -2.46425,-1.06336 -0.58208,-0.25387 -2.24895,-0.96454 -3.70416,-1.57932 -4.47114,-1.88886 -12.00317,-5.621773 -12.15814,-6.025573 -0.0807,-0.21029 -0.0798,-0.49067 0.003,-0.62304 0.19743,-0.31949 3.03609,-0.30769 4.43214,0.0185 1.40253,0.3276 10.59783,1.22896 16.32289,1.60004 2.40109,0.15563 4.60375,0.30699 4.89479,0.33636 0.48786,0.0492 0.54197,-0.15306 0.69329,-2.59241 0.0903,-1.45521 0.24939,-3.77693 0.35359,-5.15938 0.10422,-1.382451 0.26847,-3.643311 0.36504,-5.024121 0.13899,-1.98736 0.26281,-2.52725 0.5942,-2.59054 0.39788,-0.076 0.70525,0.46112 1.70778,2.98445 0.35021,0.88149 1.71821,3.819611 3.41771,7.340451 l 1.11664,2.31335 1.82478,-2.04877 c 4.67429,-5.248151 15.63759,-17.195481 18.45051,-20.106591 3.1519,-3.26193 3.46173,-2.3665 0.72461,2.09404 -1.01221,1.64956 -2.94698,4.89302 -4.29948,7.20773 -1.35249,2.31468 -2.79098,4.75546 -3.19661,5.42396 -0.40566,0.66847 -1.01211,1.776091 -1.34768,2.461341 -0.33558,0.68527 -0.73679,1.39965 -0.89157,1.5875 -0.75438,0.91557 -2.91412,4.97179 -2.64724,4.97179 0.4576,0 4.76158,-1.29675 5.28969,-1.59372 0.2527,-0.14211 0.63148,-0.25837 0.84177,-0.25837 0.21026,0 2.24345,-0.60261 4.51821,-1.33913 3.91951,-1.26908 5.31153,-1.509 5.27851,-0.90982 -0.008,0.14552 -2.04951,1.57427 -4.53662,3.175 -2.48714,1.60072 -4.86183,3.13764 -5.27709,3.41537 -0.41526,0.277733 -1.68309,1.099903 -2.81736,1.827053 -1.1343,0.72716 -1.96773,1.41269 -1.85208,1.52345 0.4858,0.46532 12.33974,6.21546 17.60659,8.54064 1.4319,0.632168 1.94064,1.294818 1.19062,1.550778 -0.6219,0.21225 -15.66944,-0.56769 -19.7776,-1.02508 -2.25557,-0.251138 -4.75589,-0.463308 -5.55625,-0.471508 l -1.45521,-0.0148 -0.18756,2.381248 c -0.22225,2.82147 -0.96396,10.63683 -1.16137,12.23698 -0.30083,2.4388 -1.4134,0.82892 -2.87991,-4.16719 -0.40576,-1.38244 -0.95975,-3.27022 -1.23102,-4.19504 -0.27131,-0.92485 -0.49327,-1.90712 -0.49327,-2.18282 0,-0.27572 -0.10109,-0.5013 -0.22465,-0.5013 -0.12354,0 -1.17541,0.98226 -2.33746,2.18281 -4.13049,4.26736 -19.00444,18.98724 -19.18425,18.98555 -0.10055,0 -0.25387,-0.11668 -0.34073,-0.2572 z m 21.95822,-24.463218 c 0.0947,-1.02955 0.13269,-2.3931 0.0844,-3.03014 l -0.0878,-1.15821 -1.71979,2.20966 c -0.94589,1.21532 -2.44234,3.224798 -3.32547,4.465508 -0.88313,1.24074 -2.55,3.48946 -3.70417,4.99721 -1.15416,1.50773 -2.6938,3.55129 -3.4214,4.54126 -0.72761,0.98996 -1.81319,2.43528 -2.41242,3.2118 -2.64422,3.42659 -1.54046,2.50195 6.18694,-5.18292 l 8.22756,-8.18224 z m 19.85034,-4.40976 c -8.3689,-4.19375 -7.1075,-3.91879 -12.44227,-2.71213 -1.59901,0.36168 -2.93968,0.68998 -2.97926,0.72956 -0.0396,0.0396 2.04261,0.57933 4.62709,1.19946 4.72345,1.13337 7.71199,1.90735 13.82715,3.58108 1.81901,0.49787 3.54542,0.90615 3.83646,0.90731 0.29104,0 -2.80009,-1.66621 -6.86917,-3.70528 z m -17.31986,-1.54283 c 0.94758,-0.94756 0.98121,-1.52451 0.11194,-1.92059 -0.82433,-0.37557 -1.76641,0 -2.38918,0.94919 -1.08096,1.64971 0.79761,2.45105 2.27724,0.9714 z m -6.68928,-0.30888 c 2.81739,-0.34068 3.5237,-0.63095 2.24798,-0.92379 -2.27248,-0.52168 -18.05694,-4.761343 -20.17477,-5.418883 -1.37668,-0.42741 -2.68636,-0.77028 -2.91041,-0.76189 -0.46771,0.0175 0.30408,0.38285 8.45613,4.003093 7.00191,3.10946 8.41666,3.65609 9.12813,3.52692 0.29104,-0.0528 1.75487,-0.24429 3.25294,-0.42545 z m 11.67525,-8.508873 c 2.0462,-2.80127 5.69616,-7.712601 8.11101,-10.914061 2.41483,-3.20146 4.68929,-6.23756 5.05434,-6.74688 0.63833,-0.89064 0.62558,-0.88559 -0.33372,0.13229 -0.54856,0.58209 -4.09287,4.45162 -7.87617,8.59896 -3.78333,4.147351 -7.26446,7.957351 -7.73581,8.466671 -0.7851,0.84834 -0.87268,1.12035 -1.04362,3.24115 -0.10264,1.273313 -0.12132,2.315103 -0.0415,2.315103 0.0798,0 1.81925,-2.291953 3.86546,-5.093233 z m -20.55464,36.574941 c -2.4557,-0.26492 -2.76468,-0.39158 -2.66033,-1.09061 0.0824,-0.5521 0.20712,-0.56912 4.58261,-0.62526 3.79002,-0.0486 4.93514,-0.16407 7.27604,-0.73345 3.39847,-0.82661 7.39759,-2.15191 8.99584,-2.98122 0.65484,-0.33978 2.24514,-1.12038 3.53401,-1.73469 4.03288,-1.92217 8.65899,-5.24706 13.1949,-9.48346 2.05941,-1.92341 2.87631,-2.25004 3.07303,-1.2287 0.19794,1.02788 -6.18794,6.59879 -11.10485,9.68764 -1.21814,0.76526 -2.63152,1.65269 -3.14084,1.97213 -1.44765,0.90786 -5.1707,2.61723 -8.03373,3.6885 -5.67264,2.12257 -11.21609,3.01464 -15.71668,2.52912 z m -8.61335,-3.44066 c -0.79171,-0.2376 -3.02096,-1.88982 -4.18721,-3.10335 -1.71215,-1.78163 -3.40977,-5.71688 -4.21971,-9.78181 -0.84214,-4.22669 -0.46038,-7.787928 1.36469,-12.730028 1.01309,-2.74333 1.57986,-3.56555 2.27418,-3.29911 0.54297,0.20835 0.43542,0.74683 -0.56428,2.82527 -1.25762,2.61474 -1.7739,5.00134 -1.91558,8.855208 -0.10235,2.78455 -0.0343,3.58492 0.46148,5.42395 1.26151,4.6799 3.64974,8.15454 7.04882,10.25528 0.60492,0.37386 0.88053,0.74449 0.88053,1.18409 0,0.69308 -0.0327,0.70369 -1.14292,0.3705 z m -164.88312,-3.84789 c -1.6297,-0.82341 -2.69245,-2.77493 -4.2272,-7.76237 -1.59702,-5.18978 -1.86242,-16.387928 -0.64336,-27.146411 0.52338,-4.619021 2.79138,-12.615541 4.88908,-17.237911 0.20809,-0.45855 0.37835,-0.91127 0.37835,-1.00605 0,-0.8403 5.66598,-11.45594 7.63233,-14.2998 4.03024,-5.82872 8.87574,-10.43281 13.37146,-12.705311 2.39647,-1.211366 3.75127,-1.24555 4.84939,-0.122359 1.25243,1.281009 1.96977,3.01311 2.22856,5.38108 0.12951,1.18521 0.29356,2.31364 0.36452,2.50762 0.23026,0.62954 -0.65297,6.77517 -1.1956,8.31906 -0.29025,0.82582 -0.52774,1.63529 -0.52774,1.79884 0,0.16354 -0.16362,0.67253 -0.36359,1.13109 -0.19997,0.45855 -0.72917,1.78623 -1.17599,2.9504 -1.23143,3.20844 -1.77803,4.28023 -5.32988,10.45104 -2.24483,3.90004 -4.5136,7.17386 -6.81161,9.82898 -4.04493,4.673611 -8.01566,8.691861 -8.58901,8.691861 -0.60796,0 -0.0446,-1.38994 1.54143,-3.80307 0.96851,-1.47357 2.1444,-3.27454 2.61308,-4.002141 1.03426,-1.60563 3.61156,-6.11 5.14718,-8.99584 0.61949,-1.16416 1.29048,-2.30463 1.49111,-2.53437 0.20063,-0.22974 0.36478,-0.48114 0.36478,-0.55867 0,-0.0775 0.44916,-0.96112 0.99811,-1.96354 0.54896,-1.00242 1.38788,-2.83461 1.86423,-4.07154 0.47636,-1.23693 0.96909,-2.48708 1.09495,-2.77813 0.12584,-0.29104 0.47086,-1.30307 0.76666,-2.24895 0.29583,-0.94589 0.85532,-2.73183 1.2433,-3.96875 0.50557,-1.61173 0.74433,-3.05488 0.84268,-5.09323 0.0754,-1.56435 0.0701,-2.84427 -0.0119,-2.84427 -1.17025,0 -4.62682,4.18336 -7.16547,8.67209 -1.43926,2.54483 -5.80337,11.45564 -7.02636,14.34666 -0.4617,1.0914 -0.9453,2.2225 -1.07468,2.51354 -0.12936,0.29104 -0.66421,2.01744 -1.18856,3.83646 -4.44146,15.407801 -5.3131,21.204554 -5.26159,34.991152 0.0167,4.47476 -0.0428,8.13323 -0.13229,8.1299 -0.0895,-0.003 -0.51988,-0.18648 -0.95644,-0.40706 z m -57.01771,-0.62966 c -1.8197,-0.24865 -3.48864,-1.0864 -4.22534,-2.121 -0.31115,-0.43699 -0.87003,-1.66008 -1.24196,-2.71799 -0.5638,-1.60366 -0.65172,-2.22313 -0.5289,-3.72578 0.32234,-3.94335 3.09346,-10.018048 6.78508,-14.873868 4.32298,-5.686323 12.63383,-12.415003 19.99274,-16.186664 5.4751,-2.80617 14.26332,-5.71293 15.65619,-5.17845 0.18661,0.0716 0.3384,0.32581 0.33732,0.56491 0,0.29163 -1.049,0.94965 -3.18323,1.99922 -6.30402,3.10023 -10.60866,6.335181 -17.93275,13.476481 -5.40393,5.269043 -9.15238,10.864903 -9.75164,14.557613 -0.15203,0.936888 -0.12568,0.973268 1.09649,1.513888 0.84055,0.37182 1.52863,0.5021 2.09285,0.39627 2.11587,-0.39695 7.47591,-4.410998 12.62383,-9.453828 2.81633,-2.75881 8.33855,-8.928893 10.10049,-11.285453 0.40296,-0.53893 1.16946,-1.42783 1.70336,-1.97531 1.87587,-1.923601 1.55634,-0.67831 -1.31968,5.14324 -1.53297,3.10295 -2.86695,5.998953 -2.96437,6.435513 -0.0974,0.43657 -0.33509,1.15094 -0.52819,1.5875 -0.76271,1.72437 -1.6828,4.88389 -2.10865,7.24091 -0.51207,2.834158 -0.25315,4.844278 0.68887,5.348448 1.63423,0.8746 8.1012,-2.03843 14.99209,-6.753178 4.48659,-3.06972 4.53363,-3.08536 4.0537,-1.34712 -0.32866,1.19025 -5.16257,7.149198 -8.38393,10.335148 -2.28221,2.25714 -5.57075,4.53856 -7.84063,5.43949 -2.23827,0.88839 -5.74054,1.33006 -7.29499,0.92001 -1.79557,-0.47366 -2.24951,-0.76364 -3.08679,-1.97183 -0.9797,-1.41373 -1.45002,-2.80432 -1.46409,-4.32906 -0.006,-0.69123 -0.0666,-1.25677 -0.1337,-1.25677 -0.13896,0 -4.1008,2.67829 -5.30188,3.5842 -2.45083,1.84854 -8.1661,4.48818 -10.18646,4.70472 -0.65484,0.0702 -1.84547,0.0381 -2.64583,-0.0713 z m 171.91427,-0.0316 c -4.64638,-0.53277 -9.38472,-3.39553 -10.65594,-6.43798 -0.38777,-0.92805 -1.01978,-5.07812 -0.82209,-5.39802 0.0688,-0.11131 0.3124,-1.984748 0.54134,-4.163218 0.22892,-2.17845 0.53181,-4.37756 0.67308,-4.88688 0.14126,-0.50933 0.43008,-1.75948 0.64179,-2.77813 0.94862,-4.564013 1.99441,-7.530443 4.26765,-12.105353 1.48225,-2.982971 5.28614,-8.655791 7.58579,-11.312791 2.5622,-2.96036 6.44549,-6.32211 9.26857,-8.02377 2.29478,-1.38322 7.89035,-3.99985 12.32019,-5.76123 5.5327,-2.1999 15.2313,-4.35578 21.88514,-4.86481 1.16417,-0.0891 3.66448,-0.36107 5.55625,-0.60447 2.67219,-0.34382 5.77125,-0.4474 13.89063,-0.46426 5.74807,-0.0119 10.77431,-0.0444 11.16944,-0.0722 0.91448,-0.0643 2.42273,-1.37946 2.86316,-2.49667 0.96377,-2.44473 2.19813,-3.11723 3.72544,-2.02969 2.15236,1.5326 2.15982,5.31312 0.0225,11.35503 -1.1049,3.1233 -5.84063,11.1125 -6.58712,11.1125 -0.68937,0 -0.67416,-0.83624 0.0714,-3.91685 0.81208,-3.35578 1.02557,-6.91668 0.44929,-7.49347 -0.17852,-0.17867 -1.48821,-0.55174 -2.91042,-0.82906 -2.02507,-0.39487 -4.23566,-0.53452 -10.1935,-0.64399 -7.82389,-0.14375 -9.45798,-0.0476 -9.45798,0.55666 0,0.19212 -1.17033,2.12149 -2.60075,4.28749 -7.26882,11.00676 -13.00347,22.340031 -17.28642,34.162704 -0.30395,0.83902 -0.70614,1.9422 -0.89376,2.45153 -0.30266,0.82155 -0.83521,2.59892 -2.1009,7.011448 -1.05351,3.67289 -0.9848,3.55698 -2.38588,4.0246 -0.7834,0.26147 -1.98437,-0.0198 -1.98437,-0.46458 0,-0.99237 3.12113,-11.454018 3.98272,-13.349598 0.13226,-0.29104 0.60544,-1.5412 1.05148,-2.778123 1.65872,-4.59981 3.10637,-7.94065 5.7309,-13.225631 3.97002,-7.99434 6.53828,-12.53546 10.77891,-19.05886 1.08278,-1.66566 1.93419,-3.06302 1.89196,-3.10523 -0.18973,-0.18974 -7.4735,0.77733 -10.3391,1.37272 -8.87214,1.84338 -13.96793,3.94284 -19.34025,7.96815 -3.11575,2.33455 -7.72236,6.82983 -9.15651,8.93525 -2.35236,3.45339 -6.78569,12.825941 -8.53297,18.039644 -2.55074,7.61121 -3.50898,14.095408 -2.45118,16.586618 0.67297,1.5849 2.42025,3.28869 3.70221,3.61003 1.24576,0.31228 6.02453,0.81518 8.6379,0.90902 3.33473,0.11973 2.21554,0.76322 -5.13836,2.95434 -1.16417,0.34687 -2.83105,0.71073 -3.70417,0.80857 -0.87313,0.0978 -1.76609,0.21058 -1.98438,0.25053 -0.21828,0.04 -1.19999,-0.0193 -2.18156,-0.13197 z m -97.62557,-1.05669 c -1.89298,-0.28684 -2.80537,-0.75288 -3.88797,-1.98591 -0.97472,-1.11014 -1.16446,-1.54385 -1.76625,-4.03712 -0.4222,-1.74927 -0.41728,-1.89193 0.15142,-4.38836 0.32329,-1.41917 0.75377,-2.898398 0.95663,-3.287178 0.20283,-0.38878 0.36954,-0.85992 0.37041,-1.04696 0.003,-0.52382 2.00118,-4.18232 3.57238,-6.53909 3.21334,-4.820003 7.21373,-8.713083 14.81595,-14.418424 5.96535,-4.47688 13.36768,-7.86874 19.69199,-9.02317 3.14709,-0.57445 4.14885,-0.62388 4.40023,-0.21711 0.21156,0.34229 -0.94644,1.60837 -1.94254,2.12391 -3.27912,1.69707 -6.00956,3.31685 -9.04833,5.36763 -8.92,6.019961 -19.12482,18.428844 -19.74646,24.011424 -0.15084,1.354528 -0.11232,1.523178 0.4119,1.803738 1.19184,0.63786 7.11433,-1.828028 9.33929,-3.888498 0.76652,-0.70985 2.64385,-2.37704 4.17182,-3.70483 1.52797,-1.32781 3.00458,-2.68324 3.28139,-3.01207 2.57349,-3.057233 4.38324,-5.424543 5.8008,-7.587963 0.92514,-1.41195 2.22912,-3.40058 2.89774,-4.41923 2.96336,-4.514721 3.89507,-5.578321 3.89507,-4.446531 0,0.27077 -0.18373,0.75464 -0.40828,1.07524 -0.62341,0.89005 -3.88649,7.529591 -5.7127,11.623941 -2.70219,6.058273 -3.10862,7.313403 -3.43077,10.594393 -0.26993,2.74923 -0.25405,3.036888 0.21172,3.836458 1.76464,3.02932 7.55877,0.94856 15.69003,-5.634488 3.08866,-2.5006 3.53671,-2.75291 3.96716,-2.23424 0.25453,0.30667 0.19473,0.58475 -0.29763,1.3835 -1.35141,2.19247 -7.63381,9.504598 -10.24729,11.926888 -1.60887,1.49119 -4.77133,3.65247 -6.5074,4.44728 -0.76059,0.34819 -2.5047,0.8015 -3.87577,1.00732 -2.13799,0.32094 -2.69566,0.3216 -3.91756,0.005 -0.78359,-0.20325 -1.67542,-0.53385 -1.98188,-0.73464 -0.98182,-0.64334 -1.74485,-2.59152 -1.92379,-4.91189 -0.0908,-1.17755 -0.21693,-2.141 -0.28025,-2.141 -0.0633,0 -1.74233,1.11439 -3.7311,2.47644 -7.5022,5.138 -11.05601,6.5614 -14.91996,5.97588 z m 202.90627,-3.99921 c -0.22202,-0.84897 0.4659,-3.73377 1.53508,-6.4375 1.70794,-4.318948 4.43886,-11.734948 6.10942,-16.590511 1.10471,-3.21093 2.00757,-7.66834 1.62978,-8.04617 -0.27086,-0.270851 -2.30791,0.58653 -4.19301,1.76483 -3.05062,1.9068 -3.27033,1.98684 -4.05046,1.47569 -1.08159,-0.70869 -0.9449,-2.16329 0.35819,-3.811811 1.69993,-2.15058 3.65424,-3.56803 6.72338,-4.87648 1.62463,-0.6926 2.31688,-0.82679 4.80828,-0.9321 2.69584,-0.11393 2.9646,-0.0803 3.6454,0.45667 2.12214,1.67373 2.37405,4.79817 0.74401,9.227991 -1.95734,5.31931 -4.3048,10.253023 -7.1283,14.981893 -0.86889,1.45521 -2.20702,3.7174 -2.97363,5.027088 -2.64887,4.52538 -4.75358,7.39799 -5.82702,7.95308 -0.99086,0.51242 -1.20454,0.4826 -1.38112,-0.19267 z m 24.3473,0.0332 c -2.1444,-0.36023 -3.56656,-1.61062 -4.30414,-3.78425 -0.60383,-1.77956 -0.39492,-2.70465 1.63862,-7.255138 2.06171,-4.61365 2.55381,-5.96178 3.42008,-9.3699 0.81381,-3.201703 0.89313,-6.473703 0.17831,-7.356453 -0.43128,-0.53261 -0.5687,-0.55803 -1.56525,-0.28969 -1.07241,0.28876 -1.70802,0.81417 -4.00455,3.31028 -0.72321,0.78607 -1.2927,1.19192 -1.53958,1.09717 -0.49528,-0.19005 -0.34978,-0.71607 0.95705,-3.46025 1.20536,-2.53111 2.35344,-4.163431 4.42296,-6.288401 2.65453,-2.72569 4.84105,-3.90494 7.38388,-3.98238 2.92987,-0.0892 4.60785,1.21295 4.60785,3.57584 0,1.67302 -1.90566,6.507591 -5.14196,13.044941 -3.41016,6.888513 -5.01454,10.921453 -4.8645,12.227993 0.0791,0.689178 0.15851,0.733208 1.23269,0.684158 0.63146,-0.0288 1.88162,-0.28882 2.77813,-0.57775 3.23628,-1.042928 4.48397,-1.204008 5.5196,-0.712568 2.33622,1.108628 1.95639,3.797218 -0.89984,6.369178 -1.91911,1.7281 -2.26383,1.92828 -4.34613,2.52378 -1.89346,0.54147 -3.32105,0.60497 -5.47322,0.24344 z M 654.90677,96.647552 c -0.29781,-0.29779 -0.18002,-1.2518 0.21976,-1.7799 0.55251,-0.72988 1.92395,-5.04169 2.23904,-7.039533 0.38878,-2.46515 0.33131,-5.68193 -0.137,-7.6689 -0.92686,-3.932691 -3.56942,-7.764471 -6.7718,-9.819431 -1.30011,-0.83431 -1.46669,-1.12572 -1.0341,-1.80935 0.42992,-0.67945 2.35217,0.45831 4.65722,2.75653 3.13161,3.12237 4.4037,5.92524 5.16562,11.381771 0.35579,2.54807 -0.47376,8.300433 -1.55048,10.751743 -1.15763,2.63546 -2.18771,3.82765 -2.78826,3.22707 z m -117.85608,-2.271 c -0.98401,-1.20771 -1.36054,-6.617233 -0.77041,-11.068393 0.38846,-2.93008 0.58322,-3.74608 1.82594,-7.650881 3.21008,-10.08648 11.83698,-19.16538 21.72578,-22.86412 3.38461,-1.26596 9.35408,-2.13121 9.28108,-1.34526 -0.0135,0.14552 -1.72429,1.16979 -3.80174,2.27615 -2.07746,1.10637 -4.80483,2.7393 -6.06086,3.62875 -4.96518,3.5161 -11.94615,11.69148 -14.7265,17.24615 -1.97948,3.954701 -3.39513,8.294501 -4.6174,14.155214 -1.16753,5.59826 -1.29265,5.95312 -2.09894,5.95312 -0.26811,0 -0.60873,-0.14883 -0.75695,-0.33073 z M 603.5776,83.153799 c -0.38153,-0.38153 -0.12977,-0.94461 0.94808,-2.12048 2.73032,-2.97857 8.53427,-7.455961 12.94144,-9.983521 4.94143,-2.83393 10.43614,-4.5592 16.55791,-5.19897 3.1155,-0.3256 7.87887,-0.13724 8.16319,0.32278 0.0872,0.14113 -0.0363,0.47192 -0.27445,0.73509 -0.37965,0.41949 -1.05995,0.49608 -5.51603,0.62105 -5.67801,0.15926 -7.39214,0.47821 -12.12149,2.25558 -6.25105,2.34921 -10.37029,5.01973 -17.11285,11.094271 -2.56742,2.31304 -3.16683,2.6932 -3.5858,2.2742 z M 433.11503,67.848288 c -0.34928,-0.53304 -0.40471,-1.22504 -0.31197,-3.8941 0.10035,-2.88813 0.22079,-3.5601 1.09273,-6.09699 2.50383,-7.28484 7.09035,-13.66939 13.01562,-18.11806 1.93836,-1.45531 8.66468,-4.993707 8.78821,-4.623068 0.0397,0.11915 -1.74625,2.056618 -3.9688,4.305478 -2.94082,2.97563 -4.83037,5.18285 -6.94034,8.10707 -4.42669,6.13506 -6.09518,9.04743 -7.92951,13.84116 -0.52901,1.38245 -1.0664,2.75167 -1.1942,3.04271 -0.12779,0.29104 -0.36494,0.94588 -0.52699,1.45521 -0.7974,2.50631 -1.33543,3.03262 -2.02475,1.98059 z"
       id="path3775"
       inkscape:connector-curvature="0" />
  </g>
</svg>
